<?xml version="1.0" encoding="UTF-8"?>
<svg version="1.1" xmlns="http://www.w3.org/2000/svg" width="256" height="256">
<path d="M0 0 C26.02779972 22.91966247 43.30295403 51.89326829 46.40234375 87.03125 C48.16075344 121.93704547 39.06937603 155.56406642 15.40234375 182.03125 C-7.55932163 206.9594585 -37.69297632 223.40609552 -72.07080078 225.15722656 C-106.93754452 226.21197393 -140.27556155 216.66394308 -166.140625 192.38671875 C-166.95144531 191.60941406 -167.76226562 190.83210937 -168.59765625 190.03125 C-169.48066406 189.22300781 -170.36367187 188.41476563 -171.2734375 187.58203125 C-193.47053141 166.57799189 -206.92306907 135.32984006 -207.80078125 104.8515625 C-208.30312646 68.32754619 -196.85748711 36.0630649 -171.35107422 9.44970703 C-126.79730976 -36.02315395 -49.27004241 -41.79592978 0 0 Z " fill="#754FFE" transform="translate(208.59765625,29.96875)"/>
<path d="M0 0 C7.05676832 3.04053683 9.73394715 8.48372929 13.1796875 14.984375 C13.70119385 15.95640869 14.2227002 16.92844238 14.76000977 17.92993164 C21.80969894 31.28820266 27.79289644 45.09356134 32.26171875 59.52734375 C33.20638891 62.37399196 34.25023059 65.08405814 35.39453125 67.8515625 C37.40678568 72.81094972 38.82233435 77.81477601 40.1796875 82.984375 C42.42066089 91.20570622 45.24543435 98.96089585 48.71386719 106.74194336 C51.57304158 113.160861 53.77934625 118.87887053 53.4296875 126.046875 C52.1096875 126.046875 50.7896875 126.046875 49.4296875 126.046875 C49.7803125 127.201875 50.1309375 128.356875 50.4921875 129.546875 C51.63706335 134.0303049 51.23823286 137.519021 50.4296875 142.046875 C47.8671875 142.921875 47.8671875 142.921875 44.4296875 143.046875 C39.78643035 140.30402267 37.08222128 136.65874706 34.4296875 132.046875 C33.98109375 131.38429687 33.5325 130.72171875 33.0703125 130.0390625 C27.06752051 120.89998031 23.86579443 110.35519579 20.4296875 100.046875 C19.5015625 100.5109375 19.5015625 100.5109375 18.5546875 100.984375 C9.94622227 105.28860761 0.01037189 102.57846141 -9.17260742 101.07543945 C-11.23559108 100.73800962 -13.30011157 100.41194242 -15.36523438 100.08789062 C-24.48394404 98.63956509 -33.52982555 96.92246426 -42.5703125 95.046875 C-42.76774551 95.57083359 -42.96517853 96.09479218 -43.16859436 96.6346283 C-45.22771639 102.08214907 -47.32646052 107.51315238 -49.44897461 112.9362793 C-50.23596313 114.96258403 -51.01273444 116.99288771 -51.77905273 119.02709961 C-52.88208761 121.94974987 -54.02100513 124.85607444 -55.16796875 127.76171875 C-55.503694 128.6752562 -55.83941925 129.58879364 -56.18531799 130.53001404 C-57.15345842 132.92539661 -58.02299013 134.97703243 -59.5703125 137.046875 C-63.34545898 138.12719727 -63.34545898 138.12719727 -66.5703125 138.046875 C-67.2303125 137.056875 -67.8903125 136.066875 -68.5703125 135.046875 C-71.03831297 136.19860855 -72.61814815 137.09471065 -74.5703125 139.046875 C-77.6953125 139.171875 -77.6953125 139.171875 -80.5703125 139.046875 C-83.48924709 133.20900582 -81.00843225 125.57290836 -79.4453125 119.609375 C-79.22593018 118.74771729 -79.00654785 117.88605957 -78.78051758 116.99829102 C-77.02641944 110.31236296 -74.88514714 103.80769023 -72.45068359 97.34008789 C-71.35631986 94.41950916 -70.5703125 92.19634957 -70.5703125 89.046875 C-72.5503125 88.386875 -74.5303125 87.726875 -76.5703125 87.046875 C-76.55871094 86.19222656 -76.54710937 85.33757812 -76.53515625 84.45703125 C-76.52613281 83.35230469 -76.51710938 82.24757813 -76.5078125 81.109375 C-76.49621094 80.00722656 -76.48460937 78.90507812 -76.47265625 77.76953125 C-76.25768679 75.13239866 -76.25768679 75.13239866 -77.5703125 74.046875 C-77.7578125 70.609375 -77.7578125 70.609375 -77.5703125 67.046875 C-74.63583893 64.11240143 -71.38771794 64.58529077 -67.4453125 64.421875 C-66.69121094 64.38320312 -65.93710938 64.34453125 -65.16015625 64.3046875 C-63.29728066 64.21036469 -61.43382995 64.12752838 -59.5703125 64.046875 C-59.25392822 63.31275391 -58.93754395 62.57863281 -58.61157227 61.82226562 C-28.3315865 -8.14646257 -28.3315865 -8.14646257 0 0 Z " fill="#FDFDFF" transform="translate(139.5703125,58.953125)"/>
<path d="M0 0 C4.16866384 1.38955461 5.0820901 4.17060841 7 7.875 C7.3815625 8.60372314 7.763125 9.33244629 8.15625 10.08325195 C11.81901896 17.2877248 14.93567697 24.71268315 18 32.1875 C18.48082031 33.35716309 18.96164063 34.52682617 19.45703125 35.73193359 C21.5159446 40.85622477 23.24140267 45.50475767 24 51 C8.08928472 49.35256899 -7.45592119 46.95834359 -22 40 C-21.48338603 34.25266953 -19.18816398 29.9293045 -16.5 24.9375 C-16.0565625 24.10420166 -15.613125 23.27090332 -15.15625 22.41235352 C-10.92749743 14.60883337 -6.31489743 6.31489743 0 0 Z " fill="#7554FE" transform="translate(129,88)"/>
</svg>
