<?xml version="1.0" encoding="UTF-8"?>
<svg version="1.1" xmlns="http://www.w3.org/2000/svg" width="216" height="216">
<path d="M0 0 C71.28 0 142.56 0 216 0 C216 71.28 216 142.56 216 216 C144.72 216 73.44 216 0 216 C0 144.72 0 73.44 0 0 Z " fill="#0D0018" transform="translate(0,0)"/>
<path d="M0 0 C-1.94514847 0.99198259 -3.87827713 1.94930305 -5.89453125 2.7890625 C-12.96345455 5.87001889 -17.14032735 10.76057022 -20.9375 17.375 C-23.30835679 25.46380551 -22.36536692 33.31455214 -19 41 C-15.48205793 47.29134614 -11.49565089 51.9279606 -5.50390625 55.94140625 C-5.00761719 56.29074219 -4.51132813 56.64007813 -4 57 C-4 57.33 -4 57.66 -4 58 C-4.65226562 58.15855469 -5.30453125 58.31710938 -5.9765625 58.48046875 C-14.84827297 60.84887523 -19.60228255 65.27584775 -25.38671875 72.23046875 C-28.02936702 75.12906358 -29.87941658 75.97789304 -33.75 76.6875 C-36.57352377 76.59942678 -37.71467232 76.2384566 -39.90234375 74.41015625 C-48.85967413 63.57119848 -52.07078033 50.79599586 -51 37 C-48.87383395 26.15249042 -42.75779002 16.2073346 -34.0390625 9.33984375 C-22.93348849 2.04250297 -13.10519825 -0.44092256 0 0 Z " fill="#F3F3EF" transform="translate(112,65)"/>
<path d="M0 0 C1.26003126 2.93283139 0.97572647 4.06815261 -0.1171875 7.13671875 C-5.76712813 18.54959881 -13.14170946 28.45041884 -25.58203125 32.9296875 C-28.04334615 33.68646075 -30.50316494 34.37154492 -33 35 C-33.61488281 35.18433594 -34.22976562 35.36867187 -34.86328125 35.55859375 C-47.69008946 38.20837314 -60.2704533 35.15232329 -71.25 28.375 C-75.82721382 25.34557235 -75.82721382 25.34557235 -77 23 C-75.1128125 22.87625 -75.1128125 22.87625 -73.1875 22.75 C-67.46736508 21.54481434 -64.6392027 17.70879431 -61.02929688 13.47241211 C-56.41655597 8.12737425 -52.60717492 6.08215248 -45.875 4.0625 C-42.19201193 3.98243504 -40.21148905 5.26044343 -37 7 C-27.55725972 9.05998287 -15.46214352 9.89932075 -6.73828125 5.15625 C-4.35810535 3.57303187 -2.12186463 1.91652289 0 0 Z " fill="#299291" transform="translate(152,118)"/>
<path d="M0 0 C1.26003126 2.93283139 0.97572647 4.06815261 -0.1171875 7.13671875 C-5.76712813 18.54959881 -13.14170946 28.45041884 -25.58203125 32.9296875 C-28.04334615 33.68646075 -30.50316494 34.37154492 -33 35 C-33.598125 35.18949219 -34.19625 35.37898438 -34.8125 35.57421875 C-38.1116639 36.21637744 -41.40397754 36.1036137 -44.75 36.0625 C-45.44738281 36.05798828 -46.14476563 36.05347656 -46.86328125 36.04882812 C-48.57555803 36.0371002 -50.28779033 36.01916653 -52 36 C-52 35.67 -52 35.34 -52 35 C-46.06 34.505 -46.06 34.505 -40 34 C-39.87753906 33.22398437 -39.75507812 32.44796875 -39.62890625 31.6484375 C-38.81993511 26.95539994 -37.87972294 22.29283237 -36.9375 17.625 C-36.75123047 16.69816406 -36.56496094 15.77132812 -36.37304688 14.81640625 C-35.9162416 12.54409282 -35.4585354 10.27196482 -35 8 C-34.410979 8.02094727 -33.82195801 8.04189453 -33.21508789 8.06347656 C-30.49773839 8.1475869 -27.78066391 8.19895467 -25.0625 8.25 C-24.13630859 8.28351563 -23.21011719 8.31703125 -22.25585938 8.3515625 C-13.34902861 8.47657065 -6.66049269 6.01592888 0 0 Z " fill="#1A6767" transform="translate(152,118)"/>
<path d="M0 0 C1.26003126 2.93283139 0.97572647 4.06815261 -0.1171875 7.13671875 C-4.69464423 16.38318134 -9.67423149 25.44938486 -20 29 C-21.32963842 25.01108475 -20.38405007 21.81537164 -19.5625 17.8125 C-19.41490234 17.06291016 -19.26730469 16.31332031 -19.11523438 15.54101562 C-18.75027209 13.69265826 -18.37602589 11.84613839 -18 10 C-20.64 10 -23.28 10 -26 10 C-26 9.67 -26 9.34 -26 9 C-25.23816406 8.97421875 -24.47632812 8.9484375 -23.69140625 8.921875 C-14.24871305 8.40317525 -7.13062345 6.44056311 0 0 Z " fill="#124243" transform="translate(152,118)"/>
<path d="M0 0 C0.33 0 0.66 0 1 0 C1.30786236 3.38648598 1.45695658 5.33360498 -0.5 8.1875 C-3.83728983 10.60703512 -7.09076248 11.69692083 -11 13 C-11.10957031 14.04800781 -11.21914062 15.09601563 -11.33203125 16.17578125 C-11.49150574 17.55476651 -11.65169966 18.93366871 -11.8125 20.3125 C-11.88275391 21.00279297 -11.95300781 21.69308594 -12.02539062 22.40429688 C-12.37340031 25.2858171 -12.68936787 27.54488781 -14.34375 29.96875 C-17.0911954 31.67942355 -19.86343625 31.17754134 -23 31 C-22.42655063 28.13275314 -22.1385485 27.1385485 -20 25 C-17.375 24.875 -17.375 24.875 -15 25 C-15.06703125 24.05898437 -15.1340625 23.11796875 -15.203125 22.1484375 C-15.2529916 18.13417592 -15.11868009 14.8657092 -14 11 C-11.02813041 8.67210801 -8.34399349 7.5344626 -4.78515625 6.30859375 C-1.78564 5.24318464 -1.78564 5.24318464 -0.62109375 2.34765625 C-0.41613281 1.57292969 -0.21117187 0.79820313 0 0 Z " fill="#AFACB1" transform="translate(142,66)"/>
<path d="M0 0 C4.62 0 9.24 0 14 0 C13.18619792 3.25520833 12.37239583 6.51041667 11.55859375 9.765625 C11.04820036 12.72090983 10.97003835 14.24434101 12 17 C10.1875 18.5625 10.1875 18.5625 8 20 C7.01 19.67 6.02 19.34 5 19 C5.3110685 16.93728361 5.62391516 14.87483534 5.9375 12.8125 C6.11152344 11.66394531 6.28554687 10.51539063 6.46484375 9.33203125 C6.91379313 6.53674788 7.42082162 3.77066414 8 1 C5.36 1 2.72 1 0 1 C0 0.67 0 0.34 0 0 Z " fill="#154D4D" transform="translate(126,127)"/>
<path d="M0 0 C2.25 0.25 2.25 0.25 4 1 C3.34 2.98 2.68 4.96 2 7 C1.01 7 0.02 7 -1 7 C-1.33 7.66 -1.66 8.32 -2 9 C-3.32 9 -4.64 9 -6 9 C-7.7511573 10.4166747 -7.7511573 10.4166747 -9 12 C-9.33 11.01 -9.66 10.02 -10 9 C-10.99 8.34 -11.98 7.68 -13 7 C-12.67 6.34 -12.34 5.68 -12 5 C-12.66 4.67 -13.32 4.34 -14 4 C-13.32453125 4.04640625 -12.6490625 4.0928125 -11.953125 4.140625 C-6.31625612 4.58207858 -6.31625612 4.58207858 -1.625 1.9375 C-1.08875 1.298125 -0.5525 0.65875 0 0 Z " fill="#312F37" transform="translate(86,114)"/>
<path d="M0 0 C3.125 0.375 3.125 0.375 6 1 C5.125 4.875 5.125 4.875 4 6 C1.66702567 6.04092937 -0.66705225 6.04241723 -3 6 C-2.42655063 3.13275314 -2.1385485 2.1385485 0 0 Z " fill="#E9E9E8" transform="translate(122,91)"/>
<path d="M0 0 C1.32 0.33 2.64 0.66 4 1 C3.34 2.98 2.68 4.96 2 7 C0.02 6.34 -1.96 5.68 -4 5 C-2.68 3.35 -1.36 1.7 0 0 Z " fill="#48474D" transform="translate(86,114)"/>
<path d="M0 0 C0 0.66 0 1.32 0 2 C-1.175625 2.433125 -1.175625 2.433125 -2.375 2.875 C-5.09671632 3.84912254 -5.09671632 3.84912254 -7 6 C-7 4.35 -7 2.7 -7 1 C-4 0 -4 0 0 0 Z " fill="#E5E4E5" transform="translate(136,75)"/>
<path d="M0 0 C1.32 0 2.64 0 4 0 C4 0.99 4 1.98 4 3 C2.35 3.33 0.7 3.66 -1 4 C-0.67 2.68 -0.34 1.36 0 0 Z " fill="#E1E0E1" transform="translate(135,107)"/>
</svg>
