<svg version="1.1" id="Layer_1" xmlns="http://www.w3.org/2000/svg" xmlns:xlink="http://www.w3.org/1999/xlink" x="0px" y="0px"
	 width="100%" viewBox="0 0 100 100" enable-background="new 0 0 100 100" xml:space="preserve">
<path fill="#7550FE" opacity="1.000000" stroke="none" 
	d="
M1.240100,65.280388 
	C1.000000,55.979103 1.000000,46.958210 1.000000,37.468658 
	C3.187145,32.069294 3.650210,26.635843 6.994916,21.934746 
	C14.658525,11.163285 24.019928,3.447942 37.716179,1.240714 
	C46.020901,1.000000 54.041798,1.000000 62.531349,1.000000 
	C67.667511,3.132260 73.076439,2.954372 77.526794,5.857945 
	C89.210617,13.480886 98.275146,22.957714 100.759132,37.715355 
	C101.000000,46.687565 101.000000,55.375126 101.000000,64.531342 
	C99.178078,67.373917 99.889183,70.418610 98.883141,73.004539 
	C97.376663,76.876785 95.503082,80.509262 91.727394,83.234772 
	C88.492844,83.855057 86.672066,85.385666 86.255272,88.800285 
	C85.576942,90.101524 84.777023,90.744499 83.395309,91.256042 
	C80.818275,90.908882 79.061165,91.541557 77.222946,92.910378 
	C75.146881,94.456314 72.651215,95.640533 70.083801,92.748367 
	C69.099174,89.974174 70.157249,87.947716 71.485428,86.090187 
	C72.845818,84.187622 73.762215,82.197464 73.758293,79.465561 
	C73.948570,77.199226 73.989464,75.296158 73.872482,73.021393 
	C73.842155,71.647675 73.930878,70.648949 74.121696,69.282852 
	C75.782013,66.672356 76.953423,64.357491 75.393333,61.227318 
	C75.055550,60.124142 75.070808,59.362854 75.279144,58.222191 
	C75.873070,56.434639 77.193298,55.405586 77.307816,53.407139 
	C78.132072,49.679050 75.824272,46.841820 75.777252,43.221420 
	C75.545540,37.888161 75.666420,32.960022 75.626465,27.666569 
	C75.574554,26.405861 75.590065,25.502859 75.035324,24.396015 
	C73.065140,22.050396 71.038231,22.863308 68.794762,23.902985 
	C67.245850,26.284288 68.190559,28.554995 68.251595,31.185448 
	C68.316444,32.257172 68.330582,32.920334 68.336014,33.583733 
	C68.428238,44.837460 68.482353,45.067371 57.774193,47.587597 
	C51.796883,48.994389 45.618015,49.087811 39.183807,46.872124 
	C37.654530,46.000652 37.015907,44.846638 35.744320,43.689323 
	C34.025124,38.073902 34.806992,32.730587 34.748753,27.031517 
	C34.304375,24.806648 37.085651,22.912552 34.389328,20.991879 
	C33.620274,20.562136 33.087738,20.353319 32.231812,20.204842 
	C31.161348,20.041183 30.407583,20.174011 29.397110,20.614887 
	C26.246689,22.440044 27.914221,25.751728 26.380919,28.316986 
	C23.791994,34.097008 24.358713,39.851124 24.804106,45.488419 
	C25.021690,48.242378 25.478355,51.001568 25.646370,54.189438 
	C26.198198,55.598511 26.989506,56.433971 27.356258,57.949562 
	C27.586586,61.199230 27.410465,64.038063 27.662451,67.277115 
	C28.608389,72.153397 26.730330,76.587845 27.628799,81.389984 
	C28.007877,82.518135 28.357534,83.282341 29.035202,84.207062 
	C29.510979,84.736061 29.826284,85.000771 30.433613,85.438766 
	C31.246637,86.029327 31.831244,86.340294 32.506222,86.401413 
	C35.359898,86.659805 37.567722,87.896988 36.827747,91.053673 
	C36.107368,94.126778 33.482048,94.105156 30.800655,93.696518 
	C26.528616,93.045471 22.328407,92.287399 18.354250,89.599213 
	C16.520784,88.453590 15.553400,86.600014 13.093752,86.484886 
	C5.974322,81.069710 2.842977,73.793808 1.240100,65.280388 
z"/>
<path fill="#744EFE" opacity="1.000000" stroke="none" 
	d="
M17.769913,88.277000 
	C22.568768,90.690399 27.677160,91.077698 32.738052,91.658745 
	C33.926445,91.795181 35.329174,91.943810 35.438282,90.370110 
	C35.558144,88.641335 34.232727,88.035561 32.748703,88.474075 
	C30.973455,88.998650 29.249525,90.018730 28.120022,87.182800 
	C29.322517,84.463905 31.171352,82.605011 33.740578,81.026993 
	C34.548157,79.863937 34.443020,78.902275 34.050262,77.567924 
	C33.800694,75.662331 33.847923,74.115723 34.092281,72.173309 
	C36.553627,68.465698 36.906219,64.964943 35.125145,60.837734 
	C35.154465,59.505249 35.469948,58.694847 36.277351,57.626278 
	C41.329296,55.551960 46.400063,57.243347 51.581749,55.826820 
	C52.723034,55.531940 53.469673,55.329376 54.593800,55.386574 
	C55.551048,55.486115 56.164902,55.616314 57.105972,55.436424 
	C58.104408,55.209457 58.796803,55.202148 59.866928,55.277763 
	C62.467621,55.951859 65.007271,55.609764 67.077484,57.784790 
	C68.218201,60.517853 67.197723,62.968639 67.498825,65.784561 
	C67.496986,66.445969 67.495903,66.708565 67.490509,67.361176 
	C67.476784,68.247459 67.455681,68.743179 67.359749,69.577789 
	C67.091728,70.785454 66.365082,71.284317 65.773514,72.179642 
	C65.689308,72.419579 65.754105,72.905869 65.873108,73.140137 
	C66.095894,73.537277 66.199669,73.700134 66.457657,74.133858 
	C68.057365,77.533974 65.665131,81.045280 67.775681,84.448853 
	C68.107658,84.985680 68.243767,85.201485 68.579590,85.751236 
	C69.208755,87.353813 69.318924,88.621086 68.544777,90.173203 
	C67.900146,90.891479 67.440346,91.277451 66.804123,91.677116 
	C67.306854,91.768700 67.693130,91.357162 68.405540,90.867233 
	C69.382439,90.468330 69.983421,90.624466 70.681381,91.455582 
	C73.335693,93.830894 75.469482,92.581726 77.272141,90.859993 
	C78.879906,89.324409 80.441399,88.782295 82.789177,89.907349 
	C83.885605,92.529999 81.953926,93.538422 80.508980,94.799934 
	C76.236015,98.530525 70.849785,99.366135 65.292709,100.757401 
	C55.979103,101.000000 46.958210,101.000000 37.468658,101.000000 
	C35.054230,99.421593 32.556313,99.902542 30.377972,99.218849 
	C25.070194,97.552971 20.197618,95.214241 17.292912,89.684158 
	C17.353266,89.051590 17.429110,88.805161 17.769913,88.277000 
z"/>
<path fill="#000000" opacity="1.000000" stroke="none" 
	d="
M101.000000,37.531342 
	C100.779327,38.196430 100.463089,38.606136 100.352623,38.556629 
	C99.115128,38.002106 99.230576,36.749298 98.837753,35.691692 
	C94.516975,24.058609 87.624367,14.393726 76.629364,8.224047 
	C72.057266,5.658480 67.108070,3.764928 62.665176,1.282895 
	C74.763870,1.000000 86.529068,1.092607 98.290512,0.923665 
	C100.709808,0.888914 101.093811,1.482732 101.064545,3.760158 
	C100.921890,14.859443 101.000000,25.961565 101.000000,37.531342 
z"/>
<path fill="#000000" opacity="1.000000" stroke="none" 
	d="
M37.531342,1.000000 
	C38.808002,2.482248 37.818016,2.673748 36.696983,3.002152 
	C23.626604,6.831082 13.806843,14.704080 6.924779,26.486824 
	C4.812086,30.103956 4.362557,34.453022 1.271613,37.340210 
	C1.000000,25.900690 1.099628,14.799787 0.922171,3.703314 
	C0.883214,1.267311 1.504924,0.908650 3.765544,0.936950 
	C14.863114,1.075876 25.963373,1.000000 37.531342,1.000000 
z"/>
<path fill="#000000" opacity="1.000000" stroke="none" 
	d="
M17.767593,88.821396 
	C23.546005,94.580681 30.847355,97.105919 37.340271,100.723099 
	C25.901632,101.000000 14.801706,100.901535 3.706118,101.077141 
	C1.278894,101.115547 0.905953,100.506912 0.936099,98.237694 
	C1.079111,87.472519 1.000000,76.704391 1.000000,65.468658 
	C2.310261,63.712494 2.714978,65.202110 2.860545,65.835030 
	C4.545579,73.161476 9.067738,78.900681 13.624385,84.942421 
	C16.027401,85.316994 16.824844,86.913132 17.767593,88.821396 
z"/>
<path fill="#000000" opacity="1.000000" stroke="none" 
	d="
M65.468658,101.000000 
	C63.699825,100.138908 65.010429,99.385132 65.356781,99.317047 
	C71.967110,98.017586 77.219643,94.017387 82.962830,90.364151 
	C83.711838,89.564224 84.302414,89.080574 84.993965,88.323837 
	C85.572357,85.418030 88.060890,84.370895 89.761009,82.305489 
	C94.132759,78.752708 96.082352,74.061981 98.041077,69.334579 
	C98.746017,67.633171 98.574020,65.464508 100.724731,64.658310 
	C101.000000,76.098366 100.901527,87.198296 101.077141,98.293884 
	C101.115555,100.721107 100.506905,101.094055 98.237694,101.063911 
	C87.472519,100.920898 76.704391,101.000000 65.468658,101.000000 
z"/>
<path fill="#FAF9FF" opacity="1.000000" stroke="none" 
	d="
M56.267494,57.178474 
	C55.249359,56.897041 54.509712,56.842930 53.403221,56.850304 
	C47.909477,57.362873 42.727722,56.392494 37.302490,57.754150 
	C36.922760,58.748058 36.866951,59.494324 36.874344,60.610741 
	C37.203506,64.461670 37.508106,67.943962 36.300747,71.684639 
	C36.012527,73.716652 35.952335,75.439789 35.986664,77.584999 
	C37.068047,79.335938 37.147984,80.760551 36.273407,82.628586 
	C32.562588,82.509773 32.482075,87.954712 28.427366,86.986435 
	C27.957180,86.580299 27.791271,86.337883 27.342941,86.049965 
	C26.377241,85.433723 25.827091,84.719215 25.244553,83.639252 
	C25.455862,78.487991 25.735649,73.668739 26.056526,68.426163 
	C26.630722,67.356010 27.297533,66.791664 27.433926,65.559509 
	C27.655470,63.662334 27.057652,62.166496 26.992607,60.266895 
	C26.950071,59.185905 26.768129,58.487930 26.419243,57.435150 
	C25.188042,54.743946 25.517776,52.252483 25.512590,49.809448 
	C25.508730,47.990707 25.534222,46.193188 24.205276,44.267319 
	C23.001802,38.484627 23.372873,33.123562 24.579456,27.402752 
	C25.161863,24.913841 25.628675,22.806446 25.861862,20.673508 
	C26.031561,19.121292 26.801920,18.714401 28.578890,18.975927 
	C29.938854,19.197199 30.739397,18.751898 31.852482,18.219730 
	C32.777920,17.802509 33.411453,17.555092 34.285149,17.215343 
	C37.434620,18.742573 36.755802,21.698559 37.059566,24.630100 
	C36.928093,30.706865 36.914841,36.398075 36.991585,42.550568 
	C37.552406,43.517616 38.026554,44.020218 38.756535,44.756126 
	C47.528763,47.303291 55.879417,45.335453 64.250648,43.934875 
	C66.131439,43.620197 65.790619,42.055050 65.836090,40.804077 
	C65.956024,37.504543 66.002983,34.202358 66.011719,30.439003 
	C65.072845,27.163298 65.604187,24.295044 65.924805,21.085270 
	C69.719879,22.131599 74.209915,17.570662 77.299255,22.811806 
	C78.149483,23.215527 78.460129,23.616964 78.218842,24.637026 
	C77.936394,30.689245 77.878128,36.376450 77.895119,42.525658 
	C79.441528,46.339653 77.457100,49.701557 77.997971,53.484135 
	C77.960976,55.048100 78.073303,56.203293 77.322464,57.633537 
	C76.945511,58.683510 76.807404,59.377666 76.632996,60.424942 
	C77.134315,63.282063 77.270828,65.784561 76.334724,68.635910 
	C76.016945,70.059044 75.932838,71.130157 75.922180,72.599762 
	C76.948868,74.672241 76.352219,76.477646 76.218903,78.612770 
	C77.434425,84.316544 73.409378,87.343559 70.922440,91.378929 
	C70.432320,91.477509 69.975983,91.226692 69.259491,91.025879 
	C68.522430,91.203003 68.131157,91.072823 67.837807,90.342628 
	C67.530769,88.915695 67.211418,87.831467 66.857956,86.406677 
	C66.823853,86.066124 66.973480,86.030762 66.922005,86.056122 
	C62.967495,82.908989 65.674980,78.635338 65.069267,74.470123 
	C64.153618,72.853500 65.138474,71.779579 65.435654,70.345718 
	C65.667198,69.567474 65.743225,69.110542 65.884789,68.311852 
	C66.502464,67.596466 65.837563,68.131523 66.374336,67.736839 
	C66.635788,67.544594 66.901871,67.369232 67.108955,67.124207 
	C66.852516,66.993462 66.716225,67.292259 66.202309,67.179169 
	C65.341217,64.340851 65.601082,61.610954 65.776123,58.430298 
	C64.349884,56.017609 62.340374,57.148224 60.267311,56.881840 
	C59.200851,56.824181 58.477337,56.809357 57.392174,56.834579 
	C56.869011,57.051678 56.707497,57.228733 56.267494,57.178474 
z"/>
<path fill="#DED5FF" opacity="1.000000" stroke="none" 
	d="
M24.438831,44.067394 
	C29.015099,47.824715 26.148691,52.844135 27.202122,57.672661 
	C27.050858,58.219231 26.858158,58.297195 26.402996,58.206814 
	C25.796362,57.413540 25.452190,56.788616 24.847075,56.084423 
	C22.549202,52.147640 23.521454,48.132259 24.438831,44.067394 
z"/>
<path fill="#6439FE" opacity="1.000000" stroke="none" 
	d="
M24.806219,43.595535 
	C23.966572,47.672962 24.617271,51.387058 24.641396,55.547569 
	C23.659315,55.210426 23.078890,54.215992 23.076744,52.986141 
	C23.063128,45.185104 23.045628,37.383736 23.123638,29.583418 
	C23.130850,28.862356 23.796894,28.147884 24.476088,27.231266 
	C24.811964,32.422066 23.924969,37.806557 24.806219,43.595535 
z"/>
<path fill="#6237FE" opacity="1.000000" stroke="none" 
	d="
M77.452362,54.211803 
	C76.339508,50.536613 77.877693,47.225670 77.876984,43.402763 
	C79.893005,46.192543 78.681519,49.713490 78.980392,53.531715 
	C78.632278,54.341763 78.212601,54.482384 77.452362,54.211803 
z"/>
<path fill="#6A40FE" opacity="1.000000" stroke="none" 
	d="
M89.806038,82.020401 
	C89.813995,84.947716 87.102791,85.866592 85.401138,87.921097 
	C84.166641,84.237862 87.284630,83.378082 89.806038,82.020401 
z"/>
<path fill="#6A41FE" opacity="1.000000" stroke="none" 
	d="
M76.423309,68.813438 
	C76.101929,66.470970 76.102806,63.953999 76.350182,61.107544 
	C78.484764,63.363533 78.713242,65.980438 76.423309,68.813438 
z"/>
<path fill="#F7F5FF" opacity="1.000000" stroke="none" 
	d="
M26.040054,58.481316 
	C26.323486,58.056053 26.506435,58.073639 26.966469,58.116245 
	C27.468527,58.546463 27.693499,58.951656 27.971539,59.589409 
	C26.950893,61.758766 28.171822,63.506561 28.687984,65.572556 
	C28.681557,67.024391 28.000572,67.761017 26.426353,67.963440 
	C26.044935,64.976624 25.992256,61.950397 26.040054,58.481316 
z"/>
<path fill="#7048FE" opacity="1.000000" stroke="none" 
	d="
M37.157497,24.716555 
	C35.721218,22.772308 36.401451,19.971489 34.679398,17.476593 
	C38.230461,18.478445 38.256283,21.270582 37.157497,24.716555 
z"/>
<path fill="#6B43FE" opacity="1.000000" stroke="none" 
	d="
M17.962143,88.828491 
	C16.687988,87.962830 15.437314,86.819366 14.065219,85.377968 
	C16.500702,83.698090 17.054939,85.762100 17.955811,87.680496 
	C18.018457,88.180412 18.002039,88.365547 17.962143,88.828491 
z"/>
<path fill="#5E32FE" opacity="1.000000" stroke="none" 
	d="
M66.006943,21.076067 
	C66.198578,23.510263 66.158974,26.297237 66.031906,29.530499 
	C64.543556,27.154011 64.610901,24.302259 66.006943,21.076067 
z"/>
<path fill="#7048FE" opacity="1.000000" stroke="none" 
	d="
M31.803566,18.058117 
	C31.736582,18.905565 31.311043,19.753340 30.926851,20.619455 
	C30.644352,21.256317 30.072554,21.792896 29.545059,21.442997 
	C29.169849,21.194113 29.223074,20.299337 29.035519,19.361500 
	C29.811546,18.708889 30.637146,18.387600 31.803566,18.058117 
z"/>
<path fill="#6A41FE" opacity="1.000000" stroke="none" 
	d="
M77.107018,54.384331 
	C77.578606,53.988720 77.977165,53.988731 78.674095,53.985428 
	C78.926750,55.352406 79.122101,56.805424 77.389832,57.845718 
	C77.067070,56.919552 77.050522,55.849758 77.107018,54.384331 
z"/>
<path fill="#6337FE" opacity="1.000000" stroke="none" 
	d="
M76.205978,78.707848 
	C75.938454,77.281105 75.877914,75.561790 75.906494,73.420364 
	C77.254417,74.717667 77.247490,76.534592 76.205978,78.707848 
z"/>
<path fill="#673DFE" opacity="1.000000" stroke="none" 
	d="
M38.918198,44.717922 
	C37.966408,45.152569 36.989006,45.213310 37.023804,43.374695 
	C37.666462,43.486153 38.251339,43.960461 38.918198,44.717922 
z"/>
<path fill="#744EFE" opacity="1.000000" stroke="none" 
	d="
M25.223663,83.665802 
	C25.783115,83.962883 26.390156,84.618507 27.070831,85.610573 
	C26.180010,85.637428 25.463718,85.086067 25.223663,83.665802 
z"/>
<path fill="#6237FE" opacity="1.000000" stroke="none" 
	d="
M78.126183,24.798569 
	C77.877647,24.574730 77.760635,24.147417 77.577370,23.393887 
	C78.025558,23.447002 78.660950,23.767216 78.126183,24.798569 
z"/>
<path fill="#6C44FE" opacity="1.000000" stroke="none" 
	d="
M37.446320,58.006958 
	C36.757736,55.430351 38.675709,56.116287 39.972237,56.154156 
	C44.064976,56.273701 48.154121,56.516453 52.640518,56.811661 
	C48.132576,59.161003 42.944035,57.496899 37.446320,58.006958 
z"/>
<path fill="#7550FE" opacity="1.000000" stroke="none" 
	d="
M67.446060,90.000069 
	C68.070702,90.281166 68.291283,90.562393 68.755592,90.959747 
	C68.562859,92.931923 67.430893,93.948914 65.485207,93.843117 
	C63.556454,93.738251 63.101021,92.381126 63.014580,90.378403 
	C64.347336,90.000069 65.694672,90.000137 67.446060,90.000069 
z"/>
<path fill="#6C44FE" opacity="1.000000" stroke="none" 
	d="
M36.402977,71.814087 
	C35.707520,68.526794 36.297199,65.122185 36.839668,61.344521 
	C38.454243,64.562546 38.855087,68.122795 36.402977,71.814087 
z"/>
<path fill="#7550FE" opacity="1.000000" stroke="none" 
	d="
M64.202057,73.691360 
	C62.894379,74.761467 61.584690,76.622002 60.647182,74.297928 
	C59.799389,72.196266 61.871258,72.222496 63.616478,72.013870 
	C64.389442,72.374016 64.543938,72.832916 64.202057,73.691360 
z"/>
<path fill="#6C44FE" opacity="1.000000" stroke="none" 
	d="
M60.151882,57.041420 
	C61.989571,55.809277 64.057114,54.743103 65.809631,57.600216 
	C63.940716,57.734112 62.160061,57.488976 60.151882,57.041420 
z"/>
<path fill="#E1D9FF" opacity="1.000000" stroke="none" 
	d="
M65.850220,67.292999 
	C66.445892,65.595169 66.984383,64.127327 67.522881,62.659477 
	C67.260483,64.565514 69.602631,67.035225 66.155975,68.120041 
	C65.950325,67.970085 65.793045,67.522980 65.850220,67.292999 
z"/>
<path fill="#6C44FE" opacity="1.000000" stroke="none" 
	d="
M36.323048,82.862350 
	C36.006496,81.610367 35.996265,80.222420 36.033607,78.420769 
	C38.415722,79.330223 38.585320,80.904854 36.323048,82.862350 
z"/>
<path fill="#7550FE" opacity="1.000000" stroke="none" 
	d="
M62.969296,89.688034 
	C62.045876,89.751312 61.003811,89.561180 60.755081,88.402779 
	C60.633732,87.837631 61.077896,87.435066 61.642944,87.535660 
	C62.623669,87.710289 62.793716,88.557404 62.969296,89.688034 
z"/>
<path fill="#6C44FE" opacity="1.000000" stroke="none" 
	d="
M64.260071,74.004532 
	C63.973976,73.557693 63.976784,73.113861 63.974510,72.337273 
	C64.349426,71.424522 64.729416,70.844528 65.350296,70.144470 
	C65.622704,71.204193 65.654221,72.383980 65.406242,73.790421 
	C64.934166,74.013901 64.741577,74.010727 64.260071,74.004532 
z"/>
<path fill="#6C44FE" opacity="1.000000" stroke="none" 
	d="
M56.114784,57.030548 
	C56.159843,56.901058 56.330681,56.850956 56.766022,56.837738 
	C57.030521,56.874622 56.665806,57.119926 56.665806,57.119926 
	C56.665806,57.119926 56.240566,57.109936 56.114784,57.030548 
z"/>
<path fill="#DED5FF" opacity="1.000000" stroke="none" 
	d="
M28.893442,65.446426 
	C26.171566,64.576408 27.086782,62.474808 27.827024,60.141716 
	C28.312799,61.573784 28.600990,63.325600 28.893442,65.446426 
z"/>
<path fill="#C8B9FF" opacity="1.000000" stroke="none" 
	d="
M66.876221,86.038818 
	C66.870529,84.978447 66.870529,83.875420 66.870529,82.490829 
	C68.589478,83.647369 67.921539,84.705452 67.120857,85.907623 
	C66.823853,86.066124 66.881912,85.996162 66.876221,86.038818 
z"/>
</svg>