<svg version="1.1" id="Layer_1" xmlns="http://www.w3.org/2000/svg" xmlns:xlink="http://www.w3.org/1999/xlink" x="0px" y="0px"
	 width="100%" viewBox="0 0 96 96" enable-background="new 0 0 96 96" xml:space="preserve">
<path fill="#FFFDFD" opacity="1.000000" stroke="none" 
	d="
M97.000000,24.000000 
	C97.000000,28.356899 97.000000,32.713799 96.619576,37.643955 
	C95.450974,38.225677 94.662788,38.234142 93.743683,38.092781 
	C93.612747,37.942959 93.278992,37.726887 93.159126,37.393761 
	C89.770584,34.534931 86.605568,34.464294 83.369080,37.570404 
	C82.894730,37.844276 82.704407,38.076328 82.270454,38.438217 
	C80.946167,38.026958 79.948593,37.553978 78.931396,36.740444 
	C77.563072,36.419937 76.214386,36.439991 74.580696,36.655342 
	C73.595993,37.961018 72.896286,39.071392 71.893257,39.952309 
	C70.628799,36.917580 68.634941,34.466770 65.893188,36.459522 
	C63.048801,38.526867 61.206108,41.972416 58.719223,45.077080 
	C57.550106,47.035870 56.587086,48.732788 55.355904,50.558102 
	C54.085716,51.113941 53.083691,51.541386 52.067383,51.641930 
	C51.980606,50.885983 51.908108,50.456944 51.899376,49.719719 
	C51.661922,48.939590 51.360703,48.467644 51.019051,47.665298 
	C50.944031,46.894157 50.909443,46.453426 50.790691,45.629456 
	C50.195793,42.885868 49.884415,40.454262 49.078552,38.199383 
	C48.745041,37.266178 47.352364,36.711514 46.441380,35.984692 
	C45.944153,36.900822 45.076622,37.796612 45.024967,38.737209 
	C44.909035,40.848186 45.198376,42.981419 45.224411,45.525795 
	C45.096901,47.961632 45.067699,49.977264 44.782688,52.173416 
	C45.369255,53.559330 46.211636,54.764729 47.228107,56.133377 
	C47.590260,56.558155 47.820511,56.774849 48.058243,57.238308 
	C48.276527,57.813385 48.529530,58.096863 48.798016,58.678162 
	C48.957272,59.554234 49.101044,60.132481 49.210014,61.083435 
	C50.806339,64.012131 52.442192,63.600952 54.423210,61.355968 
	C55.572617,60.219288 56.379612,59.190613 57.389069,58.110874 
	C57.591530,58.059811 57.998043,57.964172 58.351685,57.964287 
	C59.750107,56.557968 60.794891,55.151531 61.875671,53.550690 
	C61.911671,53.356285 62.157681,53.046711 62.493134,52.978691 
	C63.130802,52.140862 63.433018,51.371052 63.806641,50.331963 
	C64.042580,49.729664 64.207115,49.396645 64.682846,48.998726 
	C67.237518,48.439518 66.766708,42.365246 71.015015,46.327671 
	C70.898155,47.069836 70.786240,47.486950 70.380348,47.981453 
	C70.056023,49.038780 70.025665,50.018719 69.998734,51.366554 
	C69.838371,52.446957 69.674583,53.159462 69.263496,53.945099 
	C68.984192,54.673580 68.952194,55.328926 68.908783,56.364006 
	C68.877594,58.969410 68.857826,61.195084 68.977737,63.746235 
	C71.303970,64.892906 73.671318,66.591820 74.988373,62.667061 
	C75.053398,62.458263 75.293983,62.093010 75.561752,62.041924 
	C75.894379,61.328926 75.959244,60.667019 76.022324,59.637550 
	C76.173637,58.555050 76.326744,57.840115 76.728401,57.048172 
	C76.986183,56.314564 76.995415,55.657959 77.008316,54.676216 
	C77.130379,53.936073 77.248779,53.521072 77.631790,53.041794 
	C77.896027,52.312519 77.895660,51.647518 77.901978,50.596432 
	C78.512070,45.375847 80.576149,41.949032 86.262711,42.021736 
	C87.054443,43.160961 87.610588,44.064716 87.908852,45.089958 
	C87.784386,45.810432 87.917809,46.409416 88.072205,47.365833 
	C88.170311,48.189304 88.247444,48.655346 88.201469,49.049461 
	C88.078362,48.977539 87.804260,48.898933 87.493706,48.967979 
	C87.150932,50.030155 87.118713,51.023285 87.096275,52.385674 
	C86.940018,53.470894 86.773972,54.186859 86.342010,54.962265 
	C86.078529,55.686493 86.080971,56.351273 86.083458,57.385773 
	C85.900322,58.467388 85.717148,59.179287 85.247803,59.988331 
	C85.233719,61.090195 85.505798,62.094910 86.131256,63.208961 
	C86.947792,63.484058 87.410942,63.649818 88.044495,64.076462 
	C89.438423,63.828609 90.661964,63.319874 91.896347,62.513058 
	C91.985374,61.825626 92.063553,61.436279 92.451614,60.885307 
	C92.748451,59.804928 92.735420,58.886177 92.813828,57.671646 
	C92.957787,56.966431 93.010307,56.556988 93.322647,56.057388 
	C93.679977,55.645535 93.777496,55.323845 93.913254,54.613289 
	C94.661095,51.821934 95.370697,49.419445 96.310852,47.046860 
	C96.541405,47.076759 97.000000,47.000000 97.000000,47.000000 
	C97.000000,55.354233 97.000000,63.708466 96.611885,72.535843 
	C95.809143,73.400749 95.250259,73.717453 95.001480,74.195518 
	C91.106003,81.681595 87.219360,89.047981 78.508270,92.291397 
	C76.382492,93.082901 74.820961,95.389832 73.000000,97.000000 
	C56.979103,97.000000 40.958210,97.000000 24.464167,96.611885 
	C23.453388,95.769051 22.971411,95.216270 22.369564,94.874702 
	C15.977634,91.247124 9.306143,88.064438 5.867412,80.828552 
	C4.815292,78.614647 2.653575,76.928070 1.000000,75.000000 
	C1.000000,71.307091 1.000000,67.614182 1.406079,63.437218 
	C4.032653,62.372326 6.253150,61.791481 8.719285,61.130753 
	C9.017326,60.370789 9.069728,59.690704 9.144386,58.702820 
	C9.272902,57.998653 9.379162,57.602291 9.731030,57.120903 
	C9.995755,56.358139 10.014873,55.680401 10.053943,54.619736 
	C10.245952,53.234283 10.418008,52.231762 10.866854,51.084446 
	C12.263449,50.036041 13.383253,49.132431 14.593720,48.569191 
	C14.764107,49.608837 14.843830,50.308109 14.692196,51.227737 
	C14.808386,52.701462 15.155932,53.954834 15.602140,55.500935 
	C15.742354,56.202278 15.783908,56.610901 15.590621,57.244297 
	C16.223104,59.083084 17.090429,60.697094 18.355659,62.328781 
	C20.320282,61.375195 22.462639,60.767990 23.349012,59.366459 
	C26.368467,54.592094 28.945248,49.537766 31.944542,44.805080 
	C32.418438,46.341705 32.638805,47.663563 32.844345,49.298214 
	C32.715260,50.010777 32.600998,50.410545 32.243439,50.896904 
	C31.986799,51.654278 31.973461,52.325058 31.950525,53.354515 
	C31.800259,54.413872 31.659590,55.114552 31.247404,55.912849 
	C30.892235,56.993771 30.808584,57.977074 30.736374,59.387520 
	C32.774380,63.965572 35.071888,63.169605 37.797493,60.038948 
	C38.465378,57.270676 38.825096,54.647346 39.198883,51.710438 
	C39.333858,50.997845 39.454765,50.598831 39.811371,50.105629 
	C40.050026,49.342949 40.052982,48.674454 40.069351,47.647530 
	C40.231163,46.590057 40.379559,45.891010 40.771767,45.106808 
	C41.037170,44.350780 41.058762,43.679905 41.093369,42.649300 
	C41.279263,41.595387 41.452141,40.901207 41.853554,40.105431 
	C42.069832,39.337353 42.057575,38.670876 42.054718,37.645344 
	C42.220123,36.588951 42.376133,35.891609 42.773262,35.109852 
	C43.037582,34.353233 43.060780,33.681034 43.089058,32.572525 
	C40.231827,27.415955 36.371620,30.160561 32.502552,30.869457 
	C31.954395,31.709131 31.701881,32.439217 31.221600,33.448139 
	C28.358757,38.898216 25.723679,44.069454 22.775406,49.037693 
	C21.871782,47.576958 21.281357,46.319221 20.694553,44.740402 
	C20.576666,44.011200 20.455156,43.603081 20.508232,42.851398 
	C20.396441,41.348846 20.110062,40.189850 19.828175,38.669411 
	C19.605843,36.877804 19.379019,35.447643 19.354898,33.790710 
	C19.009949,32.425732 18.462296,31.287531 17.479898,30.032404 
	C16.060125,29.882038 15.058971,29.950565 14.092812,29.797791 
	C9.515455,29.073994 7.173150,30.572996 6.746685,35.602859 
	C6.332912,40.483032 5.096459,45.321613 3.884425,50.092888 
	C3.356274,52.172005 1.987178,54.037491 1.000000,56.000000 
	C1.000000,44.979103 1.000000,33.958210 1.386395,22.464317 
	C2.186495,21.606314 2.745164,21.297062 2.991934,20.824825 
	C6.156910,14.768070 9.666418,9.120363 16.146902,5.877191 
	C18.357809,4.770738 20.063480,2.654730 22.000000,1.000000 
	C39.354229,1.000000 56.708454,1.000000 74.535683,1.386394 
	C75.544266,2.228182 76.026695,2.773955 76.623611,3.125073 
	C83.004997,6.878716 89.249962,10.634852 92.168327,18.134350 
	C93.040932,20.376734 95.349380,22.060373 97.000000,24.000000 
M49.884285,66.699387 
	C49.464371,66.361107 49.044453,66.022820 48.624538,65.684540 
	C48.626907,66.577843 48.629280,67.471153 48.631649,68.364456 
	C49.049496,68.020119 49.467346,67.675781 49.884285,66.699387 
z"/>
<path fill="#D94E4C" opacity="1.000000" stroke="none" 
	d="
M8.473645,61.210636 
	C6.253150,61.791481 4.032653,62.372326 1.406079,62.976585 
	C1.000000,60.958332 1.000000,58.916668 1.000000,56.437500 
	C1.987178,54.037491 3.356274,52.172005 3.884425,50.092888 
	C5.096459,45.321613 6.332912,40.483032 6.746685,35.602859 
	C7.173150,30.572996 9.515455,29.073994 14.092812,29.797791 
	C15.058971,29.950565 16.060125,29.882038 17.490416,30.393583 
	C18.341183,31.920286 18.746687,32.968887 19.152193,34.017487 
	C19.379019,35.447643 19.605843,36.877804 19.606033,38.886944 
	C19.697483,40.708939 20.015566,41.951946 20.333647,43.194958 
	C20.455156,43.603081 20.576666,44.011200 20.482004,44.991844 
	C20.833544,47.216980 21.401255,48.869595 21.968966,50.522205 
	C22.342176,50.095036 22.715387,49.667862 23.088600,49.240692 
	C25.723679,44.069454 28.358757,38.898216 31.510262,33.339897 
	C32.283859,32.221832 32.541027,31.490852 32.798195,30.759869 
	C36.371620,30.160561 40.231827,27.415955 42.836998,32.767868 
	C42.563953,33.997768 42.548046,34.596020 42.532143,35.194271 
	C42.376133,35.891609 42.220123,36.588951 41.812489,37.852119 
	C41.582249,39.014305 41.603638,39.610668 41.625023,40.207027 
	C41.452141,40.901207 41.279263,41.595387 40.824982,42.829514 
	C40.538372,43.976959 40.533165,44.584461 40.527958,45.191963 
	C40.379559,45.891010 40.231163,46.590057 39.810215,47.839100 
	C39.550331,48.992668 39.563004,49.596241 39.575672,50.199814 
	C39.454765,50.598831 39.333858,50.997845 38.907272,51.950752 
	C38.230839,55.064392 37.860085,57.624142 37.489326,60.183891 
	C35.071888,63.169605 32.774380,63.965572 31.039497,59.193218 
	C31.393763,57.652931 31.456343,56.734081 31.518921,55.815235 
	C31.659590,55.114552 31.800259,54.413872 32.205345,53.162460 
	C32.475422,52.011261 32.481079,51.410786 32.486740,50.810310 
	C32.600998,50.410545 32.715260,50.010777 33.127869,49.064590 
	C33.957924,46.210979 34.489620,43.903782 35.021320,41.596588 
	C34.447380,41.433247 33.873436,41.269901 33.299496,41.106560 
	C32.763332,42.267811 32.227169,43.429058 31.691010,44.590309 
	C28.945248,49.537766 26.368467,54.592094 23.349012,59.366459 
	C22.462639,60.767990 20.320282,61.375195 18.220793,61.979008 
	C17.067169,60.080879 16.446316,58.550201 15.825461,57.019520 
	C15.783908,56.610901 15.742354,56.202278 15.750108,55.145378 
	C15.507460,53.333858 15.215507,52.170620 14.923553,51.007385 
	C14.843830,50.308109 14.764107,49.608837 14.741083,48.167606 
	C14.511468,45.598473 14.225152,43.771290 13.938836,41.944111 
	C13.246094,41.972057 12.553352,42.000008 11.860610,42.027954 
	C11.437096,45.095051 11.013580,48.162144 10.590064,51.229240 
	C10.418008,52.231762 10.245952,53.234283 9.791621,54.809219 
	C9.501372,55.989735 9.493397,56.597828 9.485422,57.205925 
	C9.379162,57.602291 9.272902,57.998653 8.883784,58.889076 
	C8.558498,59.992302 8.516071,60.601467 8.473645,61.210636 
z"/>
<path fill="#000000" opacity="1.000000" stroke="none" 
	d="
M73.468689,97.000000 
	C74.820961,95.389832 76.382492,93.082901 78.508270,92.291397 
	C87.219360,89.047981 91.106003,81.681595 95.001480,74.195518 
	C95.250259,73.717453 95.809143,73.400749 96.611885,73.004494 
	C97.000000,80.926338 97.000000,88.852669 97.000000,97.000000 
	C89.313866,97.000000 81.625626,97.000000 73.468689,97.000000 
z"/>
<path fill="#000000" opacity="1.000000" stroke="none" 
	d="
M97.000000,23.531265 
	C95.349380,22.060373 93.040932,20.376734 92.168327,18.134350 
	C89.249962,10.634852 83.004997,6.878716 76.623611,3.125073 
	C76.026695,2.773955 75.544266,2.228182 75.004341,1.386394 
	C82.261238,1.000000 89.522484,1.000000 97.000000,1.000000 
	C97.000000,8.352768 97.000000,15.707647 97.000000,23.531265 
z"/>
<path fill="#000000" opacity="1.000000" stroke="none" 
	d="
M1.000000,75.468781 
	C2.653575,76.928070 4.815292,78.614647 5.867412,80.828552 
	C9.306143,88.064438 15.977634,91.247124 22.369564,94.874702 
	C22.971411,95.216270 23.453388,95.769051 23.995510,96.611885 
	C16.408718,97.000000 8.817437,97.000000 1.000000,97.000000 
	C1.000000,89.980797 1.000000,82.959183 1.000000,75.468781 
z"/>
<path fill="#000000" opacity="1.000000" stroke="none" 
	d="
M21.531088,1.000000 
	C20.063480,2.654730 18.357809,4.770738 16.146902,5.877191 
	C9.666418,9.120363 6.156910,14.768070 2.991934,20.824825 
	C2.745164,21.297062 2.186495,21.606314 1.386395,21.995659 
	C1.000000,15.073850 1.000000,8.147699 1.000000,1.000000 
	C7.685770,1.000000 14.373973,1.000000 21.531088,1.000000 
z"/>
<path fill="#E68B8A" opacity="1.000000" stroke="none" 
	d="
M93.874619,38.242607 
	C94.662788,38.234142 95.450974,38.225677 96.619576,38.108604 
	C97.000000,40.700012 97.000000,43.400028 97.000000,46.550018 
	C97.000000,47.000000 96.541405,47.076759 96.043892,46.847183 
	C94.989120,43.825935 94.431870,41.034271 93.874619,38.242607 
z"/>
<path fill="#DC5A58" opacity="1.000000" stroke="none" 
	d="
M86.027138,41.786266 
	C80.576149,41.949032 78.512070,45.375847 77.669388,50.789951 
	C77.409142,51.948395 77.388161,52.527233 77.367188,53.106068 
	C77.248779,53.521072 77.130379,53.936073 76.772415,54.868431 
	C76.515190,55.965580 76.497513,56.545380 76.479843,57.125175 
	C76.326744,57.840115 76.173637,58.555050 75.774284,59.813232 
	C75.450020,60.935322 75.372002,61.514168 75.293976,62.093010 
	C75.293983,62.093010 75.053398,62.458263 74.558929,62.735344 
	C72.322327,63.148533 70.580193,63.284641 68.838058,63.420753 
	C68.857826,61.195084 68.877594,58.969410 69.162544,56.186409 
	C69.455414,55.043373 69.483109,54.457672 69.510796,53.871967 
	C69.674583,53.159462 69.838371,52.446957 70.254913,51.142395 
	C70.563210,49.668247 70.618767,48.786156 70.674324,47.904064 
	C70.786240,47.486950 70.898155,47.069836 71.270584,46.052799 
	C71.752914,43.695839 71.974747,41.938805 72.196579,40.181767 
	C72.896286,39.071392 73.595993,37.961018 74.977837,36.777367 
	C76.756989,36.829731 77.854004,36.955364 78.951019,37.081001 
	C79.948593,37.553978 80.946167,38.026958 82.463730,38.767044 
	C83.998184,39.951519 85.012657,40.868893 86.027138,41.786266 
z"/>
<path fill="#D74543" opacity="1.000000" stroke="none" 
	d="
M86.262711,42.021736 
	C85.012657,40.868893 83.998184,39.951519 82.790436,38.705322 
	C82.704407,38.076328 82.894730,37.844276 83.842545,37.718857 
	C87.437653,37.747211 90.358322,37.737049 93.278992,37.726887 
	C93.278992,37.726887 93.612747,37.942959 93.743683,38.092781 
	C94.431870,41.034271 94.989120,43.825935 95.813339,46.817280 
	C95.370697,49.419445 94.661095,51.821934 93.712158,54.752567 
	C93.219978,55.514690 93.083313,55.803635 93.062836,56.147549 
	C93.010307,56.556988 92.957787,56.966431 92.505051,57.742489 
	C92.117126,59.088383 92.129425,60.067657 92.141731,61.046932 
	C92.063553,61.436279 91.985374,61.825626 91.485199,62.590622 
	C90.000160,63.249374 88.937126,63.532478 87.874092,63.815582 
	C87.410942,63.649818 86.947792,63.484058 86.184143,62.804707 
	C85.767090,61.491138 85.650528,60.691162 85.533966,59.891186 
	C85.717148,59.179287 85.900322,58.467388 86.330353,57.202972 
	C86.587440,56.067909 86.597687,55.485367 86.607925,54.902821 
	C86.773972,54.186859 86.940018,53.470894 87.345932,52.153671 
	C87.658623,50.667923 87.731438,49.783428 87.804260,48.898933 
	C87.804260,48.898933 88.078362,48.977539 88.469452,48.978676 
	C88.888550,48.312431 88.916565,47.645050 88.892471,46.700081 
	C88.615814,45.937813 88.391281,45.453140 88.166740,44.968472 
	C87.610588,44.064716 87.054443,43.160961 86.262711,42.021736 
z"/>
<path fill="#F2D2D2" opacity="1.000000" stroke="none" 
	d="
M71.893257,39.952309 
	C71.974747,41.938805 71.752914,43.695839 71.275528,45.727749 
	C66.766708,42.365246 67.237518,48.439518 64.592224,48.621181 
	C64.298241,46.613960 64.406075,44.919380 64.513908,43.224800 
	C63.643604,43.433086 62.773304,43.641369 61.584358,43.894283 
	C60.485588,44.231010 59.705456,44.523109 58.925323,44.815208 
	C61.206108,41.972416 63.048801,38.526867 65.893188,36.459522 
	C68.634941,34.466770 70.628799,36.917580 71.893257,39.952309 
z"/>
<path fill="#CE4359" opacity="1.000000" stroke="none" 
	d="
M51.835609,50.027905 
	C51.908108,50.456944 51.980606,50.885983 51.783745,51.862968 
	C51.350269,53.585785 51.186157,54.760654 50.850487,56.182453 
	C50.116985,56.598366 49.555038,56.767353 48.767918,56.926857 
	C48.542744,56.917374 48.092957,56.946709 48.092957,56.946709 
	C47.820511,56.774849 47.590260,56.558155 47.226467,55.800972 
	C46.379990,54.201180 45.709244,53.097038 45.038498,51.992901 
	C45.067699,49.977264 45.096901,47.961632 45.520805,45.496891 
	C47.568623,45.369419 49.221737,45.691055 50.874855,46.012691 
	C50.909443,46.453426 50.944031,46.894157 50.775078,47.808235 
	C50.992897,48.863689 51.414253,49.445797 51.835609,50.027905 
z"/>
<path fill="#CB3649" opacity="1.000000" stroke="none" 
	d="
M61.903000,43.849655 
	C62.773304,43.641369 63.643604,43.433086 64.513908,43.224800 
	C64.406075,44.919380 64.298241,46.613960 64.281029,48.686081 
	C64.207115,49.396645 64.042580,49.729664 63.513870,50.459770 
	C62.819019,51.586811 62.488350,52.316761 62.157681,53.046711 
	C62.157681,53.046711 61.911671,53.356285 61.548439,53.638111 
	C60.122818,55.268017 59.060432,56.616093 57.998043,57.964172 
	C57.998043,57.964172 57.591530,58.059811 57.241734,57.846230 
	C56.552799,57.418579 56.213657,57.204506 55.950745,56.628567 
	C56.342781,54.840691 56.658592,53.414688 57.321842,51.944107 
	C59.080521,49.216236 60.491760,46.532948 61.903000,43.849655 
z"/>
<path fill="#EF9B5D" opacity="1.000000" stroke="none" 
	d="
M50.790691,45.629456 
	C49.221737,45.691055 47.568623,45.369419 45.619110,45.076691 
	C45.198376,42.981419 44.909035,40.848186 45.024967,38.737209 
	C45.076622,37.796612 45.944153,36.900822 46.441380,35.984692 
	C47.352364,36.711514 48.745041,37.266178 49.078552,38.199383 
	C49.884415,40.454262 50.195793,42.885868 50.790691,45.629456 
z"/>
<path fill="#A05595" opacity="1.000000" stroke="none" 
	d="
M55.874519,56.990437 
	C56.213657,57.204506 56.552799,57.418579 57.039272,57.897293 
	C56.379612,59.190613 55.572617,60.219288 54.041115,61.195793 
	C51.959347,60.999329 50.602081,60.855026 49.244812,60.710724 
	C49.101044,60.132481 48.957272,59.554234 48.873470,58.319954 
	C48.953327,57.421394 48.973209,57.178867 48.993092,56.936344 
	C49.555038,56.767353 50.116985,56.598366 51.211388,56.207146 
	C53.120735,56.320087 54.497627,56.655262 55.874519,56.990437 
z"/>
<path fill="#D45163" opacity="1.000000" stroke="none" 
	d="
M61.584358,43.894283 
	C60.491760,46.532948 59.080521,49.216236 57.031403,51.751068 
	C56.137035,51.211639 55.880550,50.820671 55.624065,50.429707 
	C56.587086,48.732788 57.550106,47.035870 58.719223,45.077080 
	C59.705456,44.523109 60.485588,44.231010 61.584358,43.894283 
z"/>
<path fill="#F0B9B8" opacity="1.000000" stroke="none" 
	d="
M10.866854,51.084446 
	C11.013580,48.162144 11.437096,45.095051 11.860610,42.027954 
	C12.553352,42.000008 13.246094,41.972057 13.938836,41.944111 
	C14.225152,43.771290 14.511468,45.598473 14.650421,47.827236 
	C13.383253,49.132431 12.263449,50.036041 10.866854,51.084446 
z"/>
<path fill="#CB6280" opacity="1.000000" stroke="none" 
	d="
M55.355904,50.558102 
	C55.880550,50.820671 56.137035,51.211639 56.683960,51.795643 
	C56.658592,53.414688 56.342781,54.840691 55.950745,56.628567 
	C54.497627,56.655262 53.120735,56.320087 51.382942,55.960220 
	C51.186157,54.760654 51.350269,53.585785 51.798023,52.189873 
	C53.083691,51.541386 54.085716,51.113941 55.355904,50.558102 
z"/>
<path fill="#E68B8A" opacity="1.000000" stroke="none" 
	d="
M93.159126,37.393761 
	C90.358322,37.737049 87.437653,37.747211 84.043518,37.608917 
	C86.605568,34.464294 89.770584,34.534931 93.159126,37.393761 
z"/>
<path fill="#F1BEBE" opacity="1.000000" stroke="none" 
	d="
M31.944542,44.805080 
	C32.227169,43.429058 32.763332,42.267811 33.299496,41.106560 
	C33.873436,41.269901 34.447380,41.433247 35.021320,41.596588 
	C34.489620,43.903782 33.957924,46.210979 33.142700,48.751793 
	C32.638805,47.663563 32.418438,46.341705 31.944542,44.805080 
z"/>
<path fill="#F1BEBE" opacity="1.000000" stroke="none" 
	d="
M37.797493,60.038948 
	C37.860085,57.624142 38.230839,55.064392 38.893204,52.264328 
	C38.825096,54.647346 38.465378,57.270676 37.797493,60.038948 
z"/>
<path fill="#E68988" opacity="1.000000" stroke="none" 
	d="
M22.775404,49.037693 
	C22.715387,49.667862 22.342176,50.095036 21.968966,50.522205 
	C21.401255,48.869595 20.833544,47.216980 20.478382,45.312927 
	C21.281357,46.319221 21.871782,47.576958 22.775404,49.037693 
z"/>
<path fill="#F2D2D2" opacity="1.000000" stroke="none" 
	d="
M68.977730,63.746231 
	C70.580193,63.284641 72.322327,63.148533 74.493912,62.944138 
	C73.671318,66.591820 71.303970,64.892906 68.977730,63.746231 
z"/>
<path fill="#F0B9B8" opacity="1.000000" stroke="none" 
	d="
M15.590621,57.244297 
	C16.446316,58.550201 17.067169,60.080879 17.822887,61.961334 
	C17.090429,60.697094 16.223104,59.083084 15.590621,57.244297 
z"/>
<path fill="#F2D2D2" opacity="1.000000" stroke="none" 
	d="
M49.210018,61.083435 
	C50.602081,60.855026 51.959347,60.999329 53.698708,61.303802 
	C52.442192,63.600952 50.806339,64.012131 49.210018,61.083435 
z"/>
<path fill="#F2D2D2" opacity="1.000000" stroke="none" 
	d="
M58.351685,57.964287 
	C59.060432,56.616093 60.122818,55.268017 61.512436,53.832516 
	C60.794891,55.151531 59.750107,56.557968 58.351685,57.964287 
z"/>
<path fill="#E68988" opacity="1.000000" stroke="none" 
	d="
M20.508232,42.851398 
	C20.015566,41.951946 19.697483,40.708939 19.601540,39.248390 
	C20.110062,40.189850 20.396441,41.348846 20.508232,42.851398 
z"/>
<path fill="#F2D2D2" opacity="1.000000" stroke="none" 
	d="
M49.884743,67.015411 
	C49.467346,67.675781 49.049496,68.020119 48.631649,68.364456 
	C48.629280,67.471153 48.626907,66.577843 48.624538,65.684540 
	C49.044453,66.022820 49.464371,66.361107 49.884743,67.015411 
z"/>
<path fill="#F2D2D2" opacity="1.000000" stroke="none" 
	d="
M88.044495,64.076462 
	C88.937126,63.532478 90.000160,63.249374 91.474350,62.888710 
	C90.661964,63.319874 89.438423,63.828609 88.044495,64.076462 
z"/>
<path fill="#F2D2D2" opacity="1.000000" stroke="none" 
	d="
M78.931396,36.740440 
	C77.854004,36.955364 76.756989,36.829731 75.262833,36.582069 
	C76.214386,36.439991 77.563072,36.419937 78.931396,36.740440 
z"/>
<path fill="#F2D2D2" opacity="1.000000" stroke="none" 
	d="
M44.782688,52.173416 
	C45.709244,53.097038 46.379990,54.201180 47.052372,55.637726 
	C46.211636,54.764729 45.369255,53.559330 44.782688,52.173416 
z"/>
<path fill="#F0B9B8" opacity="1.000000" stroke="none" 
	d="
M14.692196,51.227737 
	C15.215507,52.170620 15.507460,53.333858 15.651445,54.852654 
	C15.155932,53.954834 14.808386,52.701462 14.692196,51.227737 
z"/>
<path fill="#E68988" opacity="1.000000" stroke="none" 
	d="
M19.354898,33.790710 
	C18.746687,32.968887 18.341183,31.920286 17.925159,30.510508 
	C18.462296,31.287531 19.009949,32.425732 19.354898,33.790710 
z"/>
<path fill="#F2D2D2" opacity="1.000000" stroke="none" 
	d="
M87.493706,48.967979 
	C87.731438,49.783428 87.658623,50.667923 87.336151,51.784416 
	C87.118713,51.023285 87.150932,50.030155 87.493706,48.967979 
z"/>
<path fill="#F2D2D2" opacity="1.000000" stroke="none" 
	d="
M70.380348,47.981453 
	C70.618767,48.786156 70.563210,49.668247 70.251480,50.774498 
	C70.025665,50.018719 70.056023,49.038780 70.380348,47.981453 
z"/>
<path fill="#F2D2D2" opacity="1.000000" stroke="none" 
	d="
M85.247803,59.988331 
	C85.650528,60.691162 85.767090,61.491138 85.830765,62.695370 
	C85.505798,62.094910 85.233719,61.090195 85.247803,59.988331 
z"/>
<path fill="#F1BEBE" opacity="1.000000" stroke="none" 
	d="
M31.247406,55.912849 
	C31.456343,56.734081 31.393763,57.652931 31.028057,58.766079 
	C30.808584,57.977074 30.892235,56.993771 31.247406,55.912849 
z"/>
<path fill="#DC5A58" opacity="1.000000" stroke="none" 
	d="
M92.451614,60.885307 
	C92.129425,60.067657 92.117126,59.088383 92.413605,58.038265 
	C92.735420,58.886177 92.748451,59.804928 92.451614,60.885307 
z"/>
<path fill="#F1BEBE" opacity="1.000000" stroke="none" 
	d="
M39.811371,50.105629 
	C39.563004,49.596241 39.550331,48.992668 39.796799,48.197525 
	C40.052982,48.674454 40.050026,49.342949 39.811371,50.105629 
z"/>
<path fill="#F1BEBE" opacity="1.000000" stroke="none" 
	d="
M40.771767,45.106808 
	C40.533165,44.584461 40.538372,43.976959 40.811966,43.189247 
	C41.058762,43.679905 41.037170,44.350780 40.771767,45.106808 
z"/>
<path fill="#E68988" opacity="1.000000" stroke="none" 
	d="
M32.502552,30.869457 
	C32.541027,31.490852 32.283859,32.221832 31.738028,33.061058 
	C31.701881,32.439217 31.954395,31.709131 32.502552,30.869457 
z"/>
<path fill="#F1BEBE" opacity="1.000000" stroke="none" 
	d="
M41.853558,40.105431 
	C41.603638,39.610668 41.582249,39.014305 41.803093,38.211174 
	C42.057575,38.670876 42.069832,39.337353 41.853558,40.105431 
z"/>
<path fill="#F2D2D2" opacity="1.000000" stroke="none" 
	d="
M87.908859,45.089958 
	C88.391281,45.453140 88.615814,45.937813 88.669647,46.721420 
	C88.498932,47.020355 88.051231,47.008404 88.051231,47.008404 
	C87.917809,46.409416 87.784386,45.810432 87.908859,45.089958 
z"/>
<path fill="#DC5A58" opacity="1.000000" stroke="none" 
	d="
M88.072205,47.365833 
	C88.051231,47.008404 88.498932,47.020355 88.721756,46.999016 
	C88.916565,47.645050 88.888550,48.312431 88.592560,49.050598 
	C88.247444,48.655346 88.170311,48.189304 88.072205,47.365833 
z"/>
<path fill="#F1BEBE" opacity="1.000000" stroke="none" 
	d="
M42.773262,35.109852 
	C42.548046,34.596020 42.563953,33.997768 42.831917,33.204178 
	C43.060780,33.681034 43.037582,34.353233 42.773262,35.109852 
z"/>
<path fill="#F2D2D2" opacity="1.000000" stroke="none" 
	d="
M75.561745,62.041924 
	C75.372002,61.514168 75.450020,60.935322 75.776077,60.180794 
	C75.959244,60.667019 75.894379,61.328926 75.561745,62.041924 
z"/>
<path fill="#F0B9B8" opacity="1.000000" stroke="none" 
	d="
M8.719285,61.130753 
	C8.516071,60.601467 8.558498,59.992302 8.861526,59.196877 
	C9.069728,59.690704 9.017326,60.370789 8.719285,61.130753 
z"/>
<path fill="#F2D2D2" opacity="1.000000" stroke="none" 
	d="
M62.493134,52.978691 
	C62.488350,52.316761 62.819019,51.586811 63.442463,50.729053 
	C63.433018,51.371052 63.130802,52.140862 62.493134,52.978691 
z"/>
<path fill="#CB6280" opacity="1.000000" stroke="none" 
	d="
M51.899376,49.719719 
	C51.414253,49.445797 50.992897,48.863689 50.815510,48.138641 
	C51.360703,48.467644 51.661922,48.939590 51.899376,49.719719 
z"/>
<path fill="#F2D2D2" opacity="1.000000" stroke="none" 
	d="
M86.342010,54.962265 
	C86.597687,55.485367 86.587440,56.067909 86.330307,56.833256 
	C86.080971,56.351273 86.078529,55.686493 86.342010,54.962265 
z"/>
<path fill="#F2D2D2" opacity="1.000000" stroke="none" 
	d="
M76.728394,57.048172 
	C76.497513,56.545380 76.515190,55.965580 76.768753,55.193573 
	C76.995415,55.657959 76.986183,56.314564 76.728394,57.048172 
z"/>
<path fill="#F0B9B8" opacity="1.000000" stroke="none" 
	d="
M9.731030,57.120903 
	C9.493397,56.597828 9.501372,55.989735 9.771668,55.192150 
	C10.014873,55.680401 9.995755,56.358139 9.731030,57.120903 
z"/>
<path fill="#F2D2D2" opacity="1.000000" stroke="none" 
	d="
M69.263496,53.945099 
	C69.483109,54.457672 69.455414,55.043373 69.173965,55.806679 
	C68.952194,55.328926 68.984192,54.673580 69.263496,53.945099 
z"/>
<path fill="#F1BEBE" opacity="1.000000" stroke="none" 
	d="
M32.243439,50.896904 
	C32.481079,51.410786 32.475422,52.011261 32.214943,52.803787 
	C31.973461,52.325058 31.986799,51.654278 32.243439,50.896904 
z"/>
<path fill="#F2D2D2" opacity="1.000000" stroke="none" 
	d="
M77.631790,53.041794 
	C77.388161,52.527233 77.409142,51.948395 77.662704,51.176041 
	C77.895660,51.647518 77.896027,52.312519 77.631790,53.041794 
z"/>
<path fill="#CB6280" opacity="1.000000" stroke="none" 
	d="
M48.767918,56.926857 
	C48.973209,57.178867 48.953327,57.421394 48.857986,58.022133 
	C48.529530,58.096863 48.276527,57.813385 48.058243,57.238308 
	C48.092957,56.946709 48.542744,56.917374 48.767918,56.926857 
z"/>
<path fill="#DC5A58" opacity="1.000000" stroke="none" 
	d="
M93.322647,56.057388 
	C93.083313,55.803635 93.219978,55.514690 93.673920,55.141434 
	C93.777496,55.323845 93.679977,55.645535 93.322647,56.057388 
z"/>
</svg>