<?xml version="1.0" encoding="UTF-8"?>
<svg version="1.1" xmlns="http://www.w3.org/2000/svg" width="100" height="100">
<path d="M0 0 C2.00175459 1.4319235 2.00175459 1.4319235 4.125 1.1875 C6.33012328 0.25501327 6.33012328 0.25501327 8.625 -1.8125 C11.125 -3.75 11.125 -3.75 15.125 -3.75 C14.61977778 0.62859255 11.94672778 3.06651224 9.125 6.25 C10.115 7.735 10.115 7.735 11.125 9.25 C13.92419871 8.06572362 15.90550261 6.59046715 18.125 4.5625 C21.125 2.25 21.125 2.25 23.5 2.4375 C24.03625 2.705625 24.5725 2.97375 25.125 3.25 C23.82788982 8.00607065 21.12335191 10.31753264 17.48828125 13.40625 C15.81309673 15.23648284 15.81309673 15.23648284 16.41796875 17.96875 C16.65128906 18.7215625 16.88460937 19.474375 17.125 20.25 C17.80046875 19.6725 18.4759375 19.095 19.171875 18.5 C20.50992188 17.38625 20.50992188 17.38625 21.875 16.25 C22.75671875 15.5075 23.6384375 14.765 24.546875 14 C27.125 12.25 27.125 12.25 31.125 12.25 C30.59953278 16.37730614 28.36007312 18.30795127 25.5625 21.25 C21.13732967 26.49748545 20.46949386 29.50763976 20.98046875 36.2109375 C21.46014184 46.29703648 16.8634697 54.33894094 11.125 62.25 C10.51914063 63.11367187 9.91328125 63.97734375 9.2890625 64.8671875 C5.20885788 70.44406106 2.5513521 72.70899704 -4.4375 73.8125 C-6.1390625 74.0290625 -6.1390625 74.0290625 -7.875 74.25 C-8.45507812 74.42015625 -9.03515625 74.5903125 -9.6328125 74.765625 C-12.83158362 75.45664873 -15.91815707 75.42107114 -19.1875 75.4375 C-20.46238281 75.45167969 -21.73726562 75.46585937 -23.05078125 75.48046875 C-26.93797162 75.24620498 -30.16318754 74.37752505 -33.875 73.25 C-35.421875 73.3428125 -35.421875 73.3428125 -37 73.4375 C-41.10598783 73.16971818 -42.12862101 71.24457027 -44.875 68.25 C-55.51453386 55.74158038 -60.50493564 45.26866994 -59.6875 28.375 C-59.94494344 24.08427595 -61.60891543 21.88946916 -63.875 18.25 C-65.5573444 13.76374827 -65.38214999 8.91634996 -64 4.375 C-62.875 2.25 -62.875 2.25 -60.875 1.25 C-58.96035894 1.15254821 -57.04211358 1.12023106 -55.125 1.125 C-54.09890625 1.12242188 -53.0728125 1.11984375 -52.015625 1.1171875 C-48.875 1.25 -48.875 1.25 -45.86328125 1.9375 C-41.98471093 2.34310212 -40.18485566 1.26351917 -36.8125 -0.625 C-25.53310352 -6.86713705 -11.14971334 -6.78678203 0 0 Z M-41.875 4.25 C-38.51199159 8.55885453 -34.91418174 12.10594541 -30.7421875 15.63671875 C-28.875 17.25 -28.875 17.25 -27.2578125 18.95703125 C-25.94704241 20.47765988 -25.94704241 20.47765988 -23.875 20.25 C-24.17535156 20.92546875 -24.47570312 21.6009375 -24.78515625 22.296875 C-25.16542969 23.18890625 -25.54570313 24.0809375 -25.9375 25 C-26.32035156 25.88171875 -26.70320313 26.7634375 -27.09765625 27.671875 C-27.93020312 30.43308572 -28.01284861 31.6277499 -26.875 34.25 C-24.51725405 35.93134288 -24.51725405 35.93134288 -21.875 37.25 C-20.885 37.91 -19.895 38.57 -18.875 39.25 C-18.00875 38.321875 -18.00875 38.321875 -17.125 37.375 C-14.875 35.25 -14.875 35.25 -12.6875 34.1875 C-10.51441744 33.3305106 -10.51441744 33.3305106 -9.875 30.25 C-10.184375 29.693125 -10.49375 29.13625 -10.8125 28.5625 C-12.40494689 25.09658617 -12.6804013 21.93496974 -11.875 18.25 C-9.91755299 15.33070716 -7.478858 13.09246685 -4.875 10.75 C-4.20726562 10.11835938 -3.53953125 9.48671875 -2.8515625 8.8359375 C-1.2093527 7.28756826 0.44842835 5.76095287 2.125 4.25 C-11.28673241 -6.23340655 -28.14213861 -4.40767348 -41.875 4.25 Z M6.125 9.25 C4.63672574 10.65709566 3.15966815 12.07606201 1.6875 13.5 C0.86378906 14.28890625 0.04007812 15.0778125 -0.80859375 15.890625 C-2.79385207 18.15734717 -3.5050359 19.3171937 -3.875 22.25 C-0.30473289 21.65762384 1.58316451 20.27819396 4.25 17.875 C4.93320313 17.26914062 5.61640625 16.66328125 6.3203125 16.0390625 C8.31682872 14.17933269 8.31682872 14.17933269 10.125 11.25 C8.805 10.59 7.485 9.93 6.125 9.25 Z M13.125 18.25 C11.7578883 19.6554144 10.43106158 21.10017748 9.125 22.5625 C8.403125 23.36300781 7.68125 24.16351563 6.9375 24.98828125 C4.94816774 27.20300468 4.94816774 27.20300468 4.125 30.25 C9.20835725 30.09595887 11.48254718 27.22931568 14.76953125 23.74609375 C15.21683594 23.25238281 15.66414063 22.75867188 16.125 22.25 C15.465 20.93 14.805 19.61 14.125 18.25 C13.795 18.25 13.465 18.25 13.125 18.25 Z M-56.875 28.25 C-57.57004115 42.5562636 -55.59668448 52.1902185 -45.875 63.25 C-40.63721 59.57240277 -36.05921377 55.61319332 -31.63671875 50.984375 C-29.875 49.25 -29.875 49.25 -26.875 47.25 C-28.37336105 44.13801935 -30.07433758 41.1965385 -31.875 38.25 C-33.29202513 38.39230808 -34.7086096 38.53900746 -36.125 38.6875 C-36.91390625 38.76871094 -37.7028125 38.84992187 -38.515625 38.93359375 C-40.86409063 39.14299875 -40.86409063 39.14299875 -42.8515625 40.0859375 C-44.875 40.25 -44.875 40.25 -47.3828125 38.23046875 C-48.24648438 37.30878906 -49.11015625 36.38710938 -50 35.4375 C-50.86882813 34.52355469 -51.73765625 33.60960937 -52.6328125 32.66796875 C-53.37273438 31.87003906 -54.11265625 31.07210937 -54.875 30.25 C-55.535 29.59 -56.195 28.93 -56.875 28.25 Z M17.125 30.25 C16.3825 31.178125 15.64 32.10625 14.875 33.0625 C12.52640987 35.88616107 10.61371418 37.87074091 7.125 39.25 C4.38522053 39.23326 1.80445562 38.79561496 -0.875 38.25 C-1.865 38.064375 -2.855 37.87875 -3.875 37.6875 C-4.535 37.543125 -5.195 37.39875 -5.875 37.25 C-8.09757977 40.50978366 -10.16064986 43.69774296 -11.875 47.25 C-11.18277344 47.85134766 -11.18277344 47.85134766 -10.4765625 48.46484375 C-4.88924662 53.33442142 0.62621405 58.28081023 6.125 63.25 C12.16084394 57.73151411 16.65045226 51.42703747 18.125 43.25 C18.27269724 38.91075688 18.24246313 34.58961017 18.125 30.25 C17.795 30.25 17.465 30.25 17.125 30.25 Z M-25.25 59.4375 C-25.745 59.92025391 -26.24 60.40300781 -26.75 60.90039062 C-29.65968395 63.79840472 -31.93058765 66.63233484 -33.875 70.25 C-24.48327568 74.14582638 -16.00698841 74.51884325 -6.45703125 70.90625 C-5.93496094 70.6896875 -5.41289063 70.473125 -4.875 70.25 C-8.49144952 64.00340538 -13.59162738 59.11955655 -18.875 54.25 C-21.19661575 54.25 -23.61186933 57.8014695 -25.25 59.4375 Z " fill="#186B57" transform="translate(66.875,14.75)"/>
<path d="M0 0 C0.66 0 1.32 0 2 0 C3.13330147 3.67631942 3.17391721 7.23365546 3.3125 11.0625 C3.90227593 21.79173494 6.9989267 29.85541806 14 38 C19.91712679 33.84542161 25.01139933 29.22741666 30 24 C30.66 24.33 31.32 24.66 32 25 C26 31 20 37 14 43 C12.3840366 40.84133969 10.78253924 38.67404514 9.1875 36.5 C8.73568359 35.89929688 8.28386719 35.29859375 7.81835938 34.6796875 C3.21700319 28.36541769 0.7505471 22.36537911 0.3125 14.5 C0.24804688 13.39269531 0.18359375 12.28539062 0.1171875 11.14453125 C-0.02157236 7.42114175 -0.07304189 3.72513631 0 0 Z " fill="#83B0A5" transform="translate(7,39)"/>
<path d="M0 0 C-0.66 0.33 -1.32 0.66 -2 1 C-3.13350534 3.01669827 -3.13350534 3.01669827 -4 5 C-4.99 5 -5.98 5 -7 5 C-6.01 4.01 -5.02 3.02 -4 2 C-11.60555812 -2.208123 -11.60555812 -2.208123 -20 -4 C-21.10601562 -4.07541016 -21.10601562 -4.07541016 -22.234375 -4.15234375 C-31.83840007 -4.52517081 -39.64798637 -1.48534065 -48 3 C-48.99 2.34 -49.98 1.68 -51 1 C-48.60727078 -0.15272364 -46.21118379 -1.29728845 -43.8125 -2.4375 C-43.13896484 -2.76298828 -42.46542969 -3.08847656 -41.77148438 -3.42382812 C-27.51595435 -10.1691277 -13.4099262 -7.20162703 0 0 Z " fill="#86B1A6" transform="translate(72,17)"/>
<path d="M0 0 C3.07784236 4.61676353 2.36921487 9.59339035 1.5703125 14.80078125 C-0.32127471 23.80333519 -4.12818105 32.7232862 -12 38 C-12 34.24666256 -10.94157942 33.31510359 -8.6875 30.375 C-2.03021449 21.0224572 -1.56278566 13.38376605 -2 2 C-1.34 2 -0.68 2 0 2 C0 1.34 0 0.68 0 0 Z " fill="#94BBB1" transform="translate(86,42)"/>
<path d="M0 0 C0.89138672 0.32484375 0.89138672 0.32484375 1.80078125 0.65625 C12.16416284 4.13757259 20.76848134 3.72862285 31 0 C31 0.66 31 1.32 31 2 C31.66 2.33 32.32 2.66 33 3 C21.57827749 7.51493972 9.42172251 7.51493972 -2 3 C-1.34 2.67 -0.68 2.34 0 2 C0 1.34 0 0.68 0 0 Z " fill="#7DACA0" transform="translate(32,84)"/>
<path d="M0 0 C0 0.33 0 0.66 0 1 C-0.6290625 1.17015625 -1.258125 1.3403125 -1.90625 1.515625 C-7.66354865 3.14570353 -12.72884406 5.16919403 -18 8 C-18.99 7.34 -19.98 6.68 -21 6 C-18.6333817 4.79260313 -16.25909646 3.60945753 -13.875 2.4375 C-13.20984375 2.09525391 -12.5446875 1.75300781 -11.859375 1.40039062 C-7.50416375 -0.71316777 -4.84892761 -1.38217096 0 0 Z " fill="#95BBB2" transform="translate(42,12)"/>
<path d="M0 0 C0.66 0.33 1.32 0.66 2 1 C-4 7 -10 13 -16 19 C-15.72843686 14.6070669 -14.02540141 12.67191338 -10.79296875 9.796875 C-10.24253906 9.32765625 -9.69210938 8.8584375 -9.125 8.375 C-8.04391803 7.42488045 -6.96317859 6.47437098 -5.8828125 5.5234375 C-4.93148437 4.69070312 -3.98015625 3.85796875 -3 3 C-1.98747539 2.01268347 -0.97924535 1.02033257 0 0 Z " fill="#679E90" transform="translate(37,63)"/>
<path d="M0 0 C3.63559661 3.43361902 6.36113346 6.7973607 9 11 C8.01 11 7.02 11 6 11 C4.39453125 9.35546875 4.39453125 9.35546875 2.8125 7.1875 C2.28269531 6.47980469 1.75289062 5.77210937 1.20703125 5.04296875 C0 3 0 3 0 0 Z " fill="#85B1A6" transform="translate(13,68)"/>
<path d="M0 0 C0.66 0 1.32 0 2 0 C3.06723961 3.46222615 3.10173486 6.64039266 3.0625 10.25 C3.05347656 11.32765625 3.04445313 12.4053125 3.03515625 13.515625 C3.02355469 14.33546875 3.01195312 15.1553125 3 16 C2.01 15.34 1.02 14.68 0 14 C-0.29296875 10.7421875 -0.29296875 10.7421875 -0.1875 6.875 C-0.16042969 5.59367187 -0.13335938 4.31234375 -0.10546875 2.9921875 C-0.07066406 2.00476562 -0.03585938 1.01734375 0 0 Z " fill="#AFCBC4" transform="translate(7,39)"/>
<path d="M0 0 C0.66 0 1.32 0 2 0 C0.5140084 4.59306496 -1.85014682 7.43569245 -5 11 C-5.66 10.34 -6.32 9.68 -7 9 C-5.88266271 7.49428343 -4.75589965 5.99555708 -3.625 4.5 C-2.99851562 3.6646875 -2.37203125 2.829375 -1.7265625 1.96875 C-1.15679687 1.3190625 -0.58703125 0.669375 0 0 Z " fill="#84B0A5" transform="translate(80,69)"/>
<path d="M0 0 C0.66 0.33 1.32 0.66 2 1 C2 1.99 2 2.98 2 4 C2.66 4.33 3.32 4.66 4 5 C3.34 5 2.68 5 2 5 C1.731875 5.598125 1.46375 6.19625 1.1875 6.8125 C0.01506533 8.97224808 -1.19369282 10.35790256 -3 12 C-3.66 11.67 -4.32 11.34 -5 11 C-3.35 9.02 -1.7 7.04 0 5 C-0.66 3.68 -1.32 2.36 -2 1 C-1.34 0.67 -0.68 0.34 0 0 Z " fill="#82AFA4" transform="translate(82,31)"/>
<path d="M0 0 C1.625 2 1.625 2 3 4 C2.34 4 1.68 4 1 4 C0.7525 4.61875 0.505 5.2375 0.25 5.875 C-1.20628639 8.35068687 -2.37812506 8.95125002 -5 10 C-3.68 8.02 -2.36 6.04 -1 4 C-1.99 3.01 -2.98 2.02 -4 1 C-2 0 -2 0 0 0 Z " fill="#8BB4AA" transform="translate(77,22)"/>
<path d="M0 0 C3.3 0.99 6.6 1.98 10 3 C7 5 7 5 4.73828125 4.7578125 C3.93777344 4.54898438 3.13726562 4.34015625 2.3125 4.125 C1.50425781 3.92132813 0.69601563 3.71765625 -0.13671875 3.5078125 C-0.75160156 3.34023437 -1.36648437 3.17265625 -2 3 C-1.34 2.67 -0.68 2.34 0 2 C0 1.34 0 0.68 0 0 Z " fill="#95BBB2" transform="translate(32,84)"/>
</svg>
