<?xml version="1.0" encoding="UTF-8"?>
<svg version="1.1" xmlns="http://www.w3.org/2000/svg" width="100" height="100">
<path d="M0 0 C11.29084083 7.27440432 19.05183826 17.40348402 22.86206055 30.34008789 C25.18569418 41.37639481 24.72664456 55.51662685 19.30859375 65.4609375 C18.65503906 66.74291016 18.65503906 66.74291016 17.98828125 68.05078125 C11.12751097 80.51638845 0.25705195 88.57692679 -13.25756836 92.87426758 C-17.49853609 93.89654117 -21.65894935 93.94901583 -26.00390625 93.8984375 C-26.92671387 93.89013916 -27.84952148 93.88184082 -28.80029297 93.87329102 C-42.31822074 93.53944168 -53.44691247 88.39981267 -63.44140625 79.2734375 C-72.78335391 69.2802483 -77.28437537 57.18792976 -77.19140625 43.7109375 C-77.18568604 42.74446289 -77.17996582 41.77798828 -77.17407227 40.78222656 C-76.81955992 26.53011422 -70.78997777 15.05059723 -60.50390625 5.2109375 C-43.28117289 -9.33270401 -19.27760821 -11.02377015 0 0 Z " fill="#50AA3C" transform="translate(76.69140625,6.5390625)"/>
<path d="M0 0 C0.95648438 -0.02578125 1.91296875 -0.0515625 2.8984375 -0.078125 C6.05298989 0.30150595 7.38952356 1.01973446 9.625 3.25 C10.0625 6.25 10.0625 6.25 9.625 9.25 C8.125 11.125 8.125 11.125 6.625 12.25 C7.74166174 15.59998521 8.37194925 16.04340222 11.1875 17.9375 C11.82816406 18.37449219 12.46882813 18.81148437 13.12890625 19.26171875 C13.62261719 19.58785156 14.11632812 19.91398437 14.625 20.25 C14.295 21.24 13.965 22.23 13.625 23.25 C8.89166138 22.96313099 6.57619142 20.73347427 3.2734375 17.625 C1.5596793 16.02554129 1.5596793 16.02554129 -1.375 15.25 C-1.375 13.93 -1.375 12.61 -1.375 11.25 C-0.405625 10.816875 0.56375 10.38375 1.5625 9.9375 C4.90231765 8.5485139 4.90231765 8.5485139 5.625 5.25 C2.985 4.59 0.345 3.93 -2.375 3.25 C-2.375 9.52 -2.375 15.79 -2.375 22.25 C-3.695 22.25 -5.015 22.25 -6.375 22.25 C-6.40221176 20.35424749 -6.42149136 18.45838021 -6.4375 16.5625 C-6.44910156 15.50675781 -6.46070313 14.45101562 -6.47265625 13.36328125 C-6.38365425 10.52589738 -6.02439838 8.0061081 -5.375 5.25 C-6.365 5.25 -7.355 5.25 -8.375 5.25 C-8 3.3125 -8 3.3125 -7.375 1.25 C-4.80935275 -0.03282363 -2.86466931 0.04608047 0 0 Z " fill="#F4FAF3" transform="translate(69.375,39.75)"/>
<path d="M0 0 C0.99 0.33 1.98 0.66 3 1 C2.67 6.94 2.34 12.88 2 19 C2.99 18.67 3.98 18.34 5 18 C7.33299825 17.96045766 9.66708189 17.95598268 12 18 C12 19.32 12 20.64 12 22 C10.27327966 22.36590746 8.54346345 22.71722195 6.8125 23.0625 C5.36810547 23.35833984 5.36810547 23.35833984 3.89453125 23.66015625 C0.96389138 24.00423947 -1.16307068 23.74164697 -4 23 C-3.76482576 20.36804997 -3.52631562 17.73652043 -3.28125 15.10546875 C-3.10046502 13.10930125 -2.93270061 11.11188842 -2.78125 9.11328125 C-2.7090625 8.23027344 -2.636875 7.34726562 -2.5625 6.4375 C-2.50191406 5.63183594 -2.44132812 4.82617188 -2.37890625 3.99609375 C-2 2 -2 2 0 0 Z " fill="#E9F5E7" transform="translate(44,39)"/>
<path d="M0 0 C0 1.32 0 2.64 0 4 C-2.97 4 -5.94 4 -9 4 C-9.33 9.94 -9.66 15.88 -10 22 C-11.32 21.67 -12.64 21.34 -14 21 C-14.02715383 19.25008666 -14.04646551 17.50005055 -14.0625 15.75 C-14.07410156 14.77546875 -14.08570313 13.8009375 -14.09765625 12.796875 C-14.01195577 10.34241322 -13.70706066 8.33831086 -13 6 C-15.64 6 -18.28 6 -21 6 C-21 4.68 -21 3.36 -21 2 C-13.90294338 0.65504172 -7.2274605 -0.24091535 0 0 Z " fill="#F0F8EE" transform="translate(38,40)"/>
<path d="M0 0 C6 0 6 0 9 2 C7.63016497 5.16115776 7.0109362 5.9927092 4 8 C3.01 8 2.02 8 1 8 C0.67 10.97 0.34 13.94 0 17 C-0.33 17 -0.66 17 -1 17 C-0.67 11.39 -0.34 5.78 0 0 Z " fill="#70BB60" transform="translate(67,43)"/>
</svg>
