<?xml version="1.0" encoding="UTF-8"?>
<svg version="1.1" xmlns="http://www.w3.org/2000/svg" width="1024" height="1024">
<path d="M0 0 C337.92 0 675.84 0 1024 0 C1024 337.92 1024 675.84 1024 1024 C686.08 1024 348.16 1024 0 1024 C0 686.08 0 348.16 0 0 Z " fill="#09140B" transform="translate(0,0)"/>
<path d="M0 0 C0.65236633 0.09025452 1.30473267 0.18050903 1.97686768 0.27349854 C21.85822081 3.03717605 39.85684387 8.28324323 57.68359375 17.53125 C61.01602909 19.22636162 64.39065266 20.7451876 67.8125 22.25 C72.91257339 24.56991143 77.35474685 27.29302633 81.84375 30.63671875 C84.17188928 32.32953833 86.59489115 33.77109638 89.0625 35.25 C90.0819119 36.23020375 91.08496356 37.22803008 92.0625 38.25 C93.0525 38.91 94.0425 39.57 95.0625 40.25 C95.0625 40.91 95.0625 41.57 95.0625 42.25 C95.92875 42.63865234 95.92875 42.63865234 96.8125 43.03515625 C99.23543811 44.34337457 101.02678504 45.83865731 103.0625 47.6875 C105.09885624 49.52897059 107.07230004 51.25695871 109.3125 52.84765625 C110.17875 53.54181641 110.17875 53.54181641 111.0625 54.25 C111.0625 54.91 111.0625 55.57 111.0625 56.25 C111.7225 56.25 112.3825 56.25 113.0625 56.25 C113.0625 56.91 113.0625 57.57 113.0625 58.25 C113.7225 58.25 114.3825 58.25 115.0625 58.25 C115.743125 59.3946875 115.743125 59.3946875 116.4375 60.5625 C118.08865458 63.29325566 119.53921786 64.3995931 122.0625 66.25 C122.3925 67.24 122.7225 68.23 123.0625 69.25 C124.0525 69.91 125.0425 70.57 126.0625 71.25 C126.0625 72.24 126.0625 73.23 126.0625 74.25 C127.0525 74.25 128.0425 74.25 129.0625 74.25 C129.42601562 74.96285156 129.78953125 75.67570312 130.1640625 76.41015625 C132.55494723 80.96509817 134.7955161 85.21447792 138.3125 89 C141.29396345 92.22341467 142.18953855 94.97248888 143.0625 99.25 C143.7225 99.25 144.3825 99.25 145.0625 99.25 C145.90319415 100.85032137 146.73481505 102.45541171 147.5625 104.0625 C148.0265625 104.95582031 148.490625 105.84914063 148.96875 106.76953125 C150.0625 109.25 150.0625 109.25 150.0625 112.25 C150.7225 112.25 151.3825 112.25 152.0625 112.25 C153.16947816 115.06142124 154.27313123 117.87407652 155.375 120.6875 C155.68373047 121.47060547 155.99246094 122.25371094 156.31054688 123.06054688 C158.13344817 127.72333651 159.79989297 132.40292695 161.33129883 137.16918945 C162.09970727 139.48637584 162.09970727 139.48637584 163.6484375 142.484375 C166.0018142 147.81705911 166.1359431 153.76506177 166.6875 159.5 C166.80867188 160.66402344 166.92984375 161.82804688 167.0546875 163.02734375 C167.40562496 166.43372581 167.74072377 169.84073714 168.0625 173.25 C168.14730118 174.07287506 168.23210236 174.89575012 168.31947327 175.74356079 C168.95375764 182.15445854 169.22258113 188.48931771 169.23046875 194.9296875 C169.23379715 195.90430939 169.23712555 196.87893127 169.24055481 197.88308716 C169.24557811 199.92840102 169.24796457 201.97372294 169.24780273 204.01904297 C169.24998974 207.11049159 169.26819656 210.20158294 169.28710938 213.29296875 C169.32520035 226.38585218 169.33948453 238.60129832 164.0078125 250.78515625 C162.34226337 255.12797237 161.78710699 259.67424102 161.0625 264.25 C160.09887905 269.76405323 158.72157878 274.33813286 156.0703125 279.27734375 C154.7349531 281.89112863 153.78107994 284.59353598 152.7890625 287.3515625 C151.74264837 290.08574135 150.4220112 292.66045485 149.0625 295.25 C148.4025 295.25 147.7425 295.25 147.0625 295.25 C146.7325 296.44625 146.4025 297.6425 146.0625 298.875 C142.14373558 310.53973336 134.64692439 320.72118158 127.0625 330.25 C126.27230469 331.24515625 125.48210937 332.2403125 124.66796875 333.265625 C119.57001367 339.58945651 114.41344383 345.16924493 108.0625 350.25 C107.2375 351.075 106.4125 351.9 105.5625 352.75 C103.17612955 355.13637045 100.78805077 357.26108458 98.0625 359.25 C97.4025 359.25 96.7425 359.25 96.0625 359.25 C95.815 359.848125 95.5675 360.44625 95.3125 361.0625 C93.42020597 364.37401456 91.18941155 365.84546765 87.625 367.125 C84.90874117 368.1258198 84.90874117 368.1258198 82.875 370.5 C78.20076839 375.0703598 68.80449904 382.25 62.0625 382.25 C62.0625 382.91 62.0625 383.57 62.0625 384.25 C58.96413816 385.44167763 55.86554163 386.6326821 52.765625 387.8203125 C50.43775585 388.71904679 48.11411776 389.62889912 45.796875 390.5546875 C33.55246409 395.41022976 21.01279479 398.8522852 8.0625 401.25 C6.75466553 401.50595947 6.75466553 401.50595947 5.42041016 401.76708984 C-4.52841266 403.53299404 -14.36566456 403.64924042 -24.4375 403.625 C-25.32622803 403.62412384 -26.21495605 403.62324768 -27.13061523 403.62234497 C-40.46995763 403.57895157 -53.0413374 402.90748884 -65.9375 399.25 C-66.98502441 398.9607666 -68.03254883 398.6715332 -69.11181641 398.37353516 C-76.08556228 396.43399644 -83.02317539 394.39137328 -89.9375 392.25 C-89.9375 391.59 -89.9375 390.93 -89.9375 390.25 C-91.113125 390.085 -92.28875 389.92 -93.5 389.75 C-100.27351843 388.25662586 -106.1163078 384.6469164 -112.10253906 381.27832031 C-114.77991624 379.77790617 -117.48526929 378.33004731 -120.1875 376.875 C-122.87303106 375.41830285 -125.39152016 373.9473199 -127.9375 372.25 C-127.9375 371.59 -127.9375 370.93 -127.9375 370.25 C-128.66582031 369.99347656 -129.39414062 369.73695313 -130.14453125 369.47265625 C-156.81049036 357.79930632 -178.05019647 324.2564929 -191.82275391 300.19116211 C-192.5563325 298.91374569 -193.29800808 297.64093943 -194.04833984 296.37329102 C-196.04746522 292.97108434 -197.6681955 289.67174852 -198.9375 285.9375 C-200.13728497 282.49160597 -201.39307221 279.11087655 -202.8125 275.75 C-207.82100819 263.31781367 -211.45908353 250.4087867 -213.9375 237.25 C-214.10507812 236.49589844 -214.27265625 235.74179687 -214.4453125 234.96484375 C-219.90510883 204.84930053 -217.78418535 171.2287307 -207.9375 142.25 C-207.40288321 140.33178695 -206.86863386 138.41346141 -206.34155273 136.49316406 C-200.43859998 115.35654908 -189.85462964 96.36875132 -177.3125 78.4375 C-176.80372314 77.70797119 -176.29494629 76.97844238 -175.77075195 76.22680664 C-174.54866508 74.52644857 -173.25028117 72.8813551 -171.9375 71.25 C-171.2775 71.25 -170.6175 71.25 -169.9375 71.25 C-169.69845947 70.52490234 -169.45941895 69.79980469 -169.21313477 69.05273438 C-167.74384381 65.82451233 -166.01739749 63.92653314 -163.52734375 61.40625 C-162.17866211 60.04052856 -162.17866211 60.04052856 -160.80273438 58.6472168 C-159.82792457 57.68036588 -158.8519885 56.71464933 -157.875 55.75 C-157.38185303 55.25956207 -156.88870605 54.76912415 -156.38061523 54.26382446 C-147.81390677 45.76838963 -138.88782774 38.09069179 -128.9375 31.25 C-128.32471191 30.82444824 -127.71192383 30.39889648 -127.08056641 29.96044922 C-118.76090122 24.23829611 -110.0921909 19.49735078 -100.9375 15.25 C-99.95265625 14.78722656 -98.9678125 14.32445312 -97.953125 13.84765625 C-91.0487852 10.7780241 -84.13813088 8.90797448 -76.796875 7.2421875 C-72.91343858 6.33418117 -72.91343858 6.33418117 -69.26171875 4.765625 C-63.70509938 2.6070453 -57.87243069 1.96057636 -52 1.125 C-50.87142578 0.95613281 -49.74285156 0.78726562 -48.58007812 0.61328125 C-45.36835789 0.13871642 -42.15414139 -0.31019816 -38.9375 -0.75 C-37.80223877 -0.91773926 -37.80223877 -0.91773926 -36.64404297 -1.08886719 C-24.39449208 -2.72367028 -12.17573863 -1.71998695 0 0 Z " fill="#A8DB28" transform="translate(534.9375,311.75)"/>
<path d="M0 0 C0.65236633 0.09025452 1.30473267 0.18050903 1.97686768 0.27349854 C21.85822081 3.03717605 39.85684387 8.28324323 57.68359375 17.53125 C61.01602909 19.22636162 64.39065266 20.7451876 67.8125 22.25 C72.91257339 24.56991143 77.35474685 27.29302633 81.84375 30.63671875 C84.17188928 32.32953833 86.59489115 33.77109638 89.0625 35.25 C90.0819119 36.23020375 91.08496356 37.22803008 92.0625 38.25 C93.0525 38.91 94.0425 39.57 95.0625 40.25 C95.0625 40.91 95.0625 41.57 95.0625 42.25 C95.92875 42.63865234 95.92875 42.63865234 96.8125 43.03515625 C99.23543811 44.34337457 101.02678504 45.83865731 103.0625 47.6875 C105.09885624 49.52897059 107.07230004 51.25695871 109.3125 52.84765625 C110.17875 53.54181641 110.17875 53.54181641 111.0625 54.25 C111.0625 54.91 111.0625 55.57 111.0625 56.25 C111.7225 56.25 112.3825 56.25 113.0625 56.25 C113.0625 56.91 113.0625 57.57 113.0625 58.25 C113.7225 58.25 114.3825 58.25 115.0625 58.25 C115.743125 59.3946875 115.743125 59.3946875 116.4375 60.5625 C118.08865458 63.29325566 119.53921786 64.3995931 122.0625 66.25 C122.3925 67.24 122.7225 68.23 123.0625 69.25 C124.0525 69.91 125.0425 70.57 126.0625 71.25 C126.0625 72.24 126.0625 73.23 126.0625 74.25 C127.0525 74.25 128.0425 74.25 129.0625 74.25 C129.42601562 74.96285156 129.78953125 75.67570312 130.1640625 76.41015625 C132.55494723 80.96509817 134.7955161 85.21447792 138.3125 89 C141.29396345 92.22341467 142.18953855 94.97248888 143.0625 99.25 C143.7225 99.25 144.3825 99.25 145.0625 99.25 C145.90319415 100.85032137 146.73481505 102.45541171 147.5625 104.0625 C148.0265625 104.95582031 148.490625 105.84914063 148.96875 106.76953125 C150.0625 109.25 150.0625 109.25 150.0625 112.25 C150.7225 112.25 151.3825 112.25 152.0625 112.25 C153.0525 115.55 154.0425 118.85 155.0625 122.25 C147.70209121 126.691626 140.1830113 129.48515925 132.0625 132.25 C130.70546569 132.74216385 129.3506724 133.24063626 128 133.75 C127.39671875 133.976875 126.7934375 134.20375 126.171875 134.4375 C124.46967816 135.09316101 122.77298679 135.76310473 121.078125 136.4375 C103.80357143 143.25 103.80357143 143.25 96.0625 143.25 C96.0625 143.91 96.0625 144.57 96.0625 145.25 C85.43241269 147.81319119 74.79782338 150.16480378 64.0625 152.25 C62.91974609 152.48638184 62.91974609 152.48638184 61.75390625 152.72753906 C55.83736615 153.94551431 49.92009109 154.92009788 43.9375 155.75 C42.70386719 155.92595703 42.70386719 155.92595703 41.4453125 156.10546875 C39.65936082 156.35712558 37.87222461 156.60046322 36.08422852 156.8371582 C33.97687547 157.12507401 31.87323244 157.44092895 29.77319336 157.77807617 C16.51770837 159.73935138 3.25051697 159.60176094 -10.125 159.5625 C-11.99325943 159.56026428 -11.99325943 159.56026428 -13.89926147 159.5579834 C-38.00432947 159.50600482 -61.3145296 158.35501726 -84.84399414 152.73217773 C-87.97277916 152.01155378 -91.12153231 151.40065393 -94.27124023 150.77905273 C-99.06391235 149.82806652 -103.84525341 148.82619544 -108.625 147.8125 C-110.11483398 147.50602539 -110.11483398 147.50602539 -111.63476562 147.19335938 C-117.09288286 146.02920281 -121.87011971 144.56886355 -126.9375 142.25 C-128.73819913 141.70903893 -130.55077765 141.20537794 -132.375 140.75 C-137.03805406 139.52388361 -141.46817215 138.04790798 -145.9375 136.25 C-147.28134766 135.71632813 -147.28134766 135.71632813 -148.65234375 135.171875 C-151.08309293 134.20366635 -153.51126107 133.22944481 -155.9375 132.25 C-155.9375 131.59 -155.9375 130.93 -155.9375 130.25 C-156.906875 130.1675 -157.87625 130.085 -158.875 130 C-161.84992504 129.57125208 -164.28643663 128.77173585 -167.015625 127.51953125 C-168.19499634 126.98078369 -168.19499634 126.98078369 -169.39819336 126.43115234 C-170.23616455 126.04137207 -171.07413574 125.6515918 -171.9375 125.25 C-172.80576416 124.84861816 -173.67402832 124.44723633 -174.56860352 124.03369141 C-177.301071 122.76267291 -180.02617279 121.47691998 -182.75 120.1875 C-183.67748047 119.75373047 -184.60496094 119.31996094 -185.56054688 118.87304688 C-186.45451172 118.44958984 -187.34847656 118.02613281 -188.26953125 117.58984375 C-189.07108643 117.21206787 -189.8726416 116.83429199 -190.69848633 116.44506836 C-192.96955553 115.23289044 -194.92262134 113.84675606 -196.9375 112.25 C-190.21578225 98.00530013 -182.29260724 83.22943779 -171.9375 71.25 C-171.2775 71.25 -170.6175 71.25 -169.9375 71.25 C-169.69845947 70.52490234 -169.45941895 69.79980469 -169.21313477 69.05273438 C-167.74384381 65.82451233 -166.01739749 63.92653314 -163.52734375 61.40625 C-162.17866211 60.04052856 -162.17866211 60.04052856 -160.80273438 58.6472168 C-159.82792457 57.68036588 -158.8519885 56.71464933 -157.875 55.75 C-157.38185303 55.25956207 -156.88870605 54.76912415 -156.38061523 54.26382446 C-147.81390677 45.76838963 -138.88782774 38.09069179 -128.9375 31.25 C-128.32471191 30.82444824 -127.71192383 30.39889648 -127.08056641 29.96044922 C-118.76090122 24.23829611 -110.0921909 19.49735078 -100.9375 15.25 C-99.95265625 14.78722656 -98.9678125 14.32445312 -97.953125 13.84765625 C-91.0487852 10.7780241 -84.13813088 8.90797448 -76.796875 7.2421875 C-72.91343858 6.33418117 -72.91343858 6.33418117 -69.26171875 4.765625 C-63.70509938 2.6070453 -57.87243069 1.96057636 -52 1.125 C-50.87142578 0.95613281 -49.74285156 0.78726562 -48.58007812 0.61328125 C-45.36835789 0.13871642 -42.15414139 -0.31019816 -38.9375 -0.75 C-37.80223877 -0.91773926 -37.80223877 -0.91773926 -36.64404297 -1.08886719 C-24.39449208 -2.72367028 -12.17573863 -1.71998695 0 0 Z " fill="#8DDC34" transform="translate(534.9375,311.75)"/>
<path d="M0 0 C3.34380499 0.00008128 6.68747303 -0.00687873 10.03125 -0.02050781 C32.90533122 -0.11221136 55.52582322 0.1311971 78.14868164 3.99780273 C79.17614502 4.16957031 80.2036084 4.34133789 81.26220703 4.51831055 C84.41528348 5.05637656 87.56366286 5.61568102 90.71118164 6.18530273 C91.70762695 6.36432129 92.70407227 6.54333984 93.73071289 6.7277832 C109.79350726 9.67771644 125.19682844 14.12684944 140.71118164 19.18530273 C142.79055294 19.85214337 144.86997875 20.51881407 146.94946289 21.18530273 C148.87053784 21.80875792 150.79113666 22.43368276 152.71118164 23.06030273 C153.59572021 23.34631348 154.48025879 23.63232422 155.39160156 23.92700195 C156.19831299 24.19528809 157.00502441 24.46357422 157.83618164 24.73999023 C158.54000977 24.97186035 159.24383789 25.20373047 159.96899414 25.44262695 C161.71118164 26.18530273 161.71118164 26.18530273 163.71118164 28.18530273 C155.3467387 40.71176318 146.56134831 52.7051694 134.71118164 62.18530273 C133.88618164 63.01030273 133.06118164 63.83530273 132.21118164 64.68530273 C129.82481119 67.07167318 127.43673241 69.19638731 124.71118164 71.18530273 C124.05118164 71.18530273 123.39118164 71.18530273 122.71118164 71.18530273 C122.46368164 71.78342773 122.21618164 72.38155273 121.96118164 72.99780273 C120.06888761 76.30931729 117.83809319 77.78077038 114.27368164 79.06030273 C111.55742281 80.06112253 111.55742281 80.06112253 109.52368164 82.43530273 C104.84945003 87.00566254 95.45318068 94.18530273 88.71118164 94.18530273 C88.71118164 94.84530273 88.71118164 95.50530273 88.71118164 96.18530273 C85.6128198 97.37698037 82.51422327 98.56798484 79.41430664 99.75561523 C77.08643749 100.65434953 74.7627994 101.56420186 72.44555664 102.48999023 C60.20114573 107.34553249 47.66147643 110.78758793 34.71118164 113.18530273 C33.83929199 113.35594238 32.96740234 113.52658203 32.0690918 113.70239258 C22.12026899 115.46829677 12.28301708 115.58454315 2.21118164 115.56030273 C1.32245361 115.55942657 0.43372559 115.55855042 -0.48193359 115.55764771 C-13.82127599 115.5142543 -26.39265576 114.84279157 -39.28881836 111.18530273 C-40.33634277 110.89606934 -41.38386719 110.60683594 -42.46313477 110.30883789 C-49.43688064 108.36929917 -56.37449375 106.32667602 -63.28881836 104.18530273 C-63.28881836 103.52530273 -63.28881836 102.86530273 -63.28881836 102.18530273 C-64.46444336 102.02030273 -65.64006836 101.85530273 -66.85131836 101.68530273 C-73.62483679 100.19192859 -79.46762616 96.58221913 -85.45385742 93.21362305 C-88.1312346 91.71320891 -90.83658765 90.26535004 -93.53881836 88.81030273 C-96.22434942 87.35360558 -98.74283851 85.88262263 -101.28881836 84.18530273 C-101.28881836 83.52530273 -101.28881836 82.86530273 -101.28881836 82.18530273 C-102.01713867 81.9287793 -102.74545898 81.67225586 -103.49584961 81.40795898 C-122.52609387 73.07723667 -140.6921309 49.74295491 -152.35131836 33.12280273 C-152.74601318 32.56214111 -153.14070801 32.00147949 -153.54736328 31.42382812 C-156.28881836 27.4311732 -156.28881836 27.4311732 -156.28881836 25.18530273 C-133.70628082 14.52739334 -106.56747798 5.25960534 -81.28881836 6.18530273 C-81.28881836 5.52530273 -81.28881836 4.86530273 -81.28881836 4.18530273 C-80.4522168 4.13631836 -79.61561523 4.08733398 -78.75366211 4.03686523 C-72.49891493 3.63512068 -66.36564428 3.09753619 -60.16381836 2.18530273 C-40.26691363 -0.5310573 -20.04048996 -0.0025498 0 0 Z " fill="#CBD91A" transform="translate(508.288818359375,599.814697265625)"/>
<path d="M0 0 C3.1031859 0.66708544 5.74384981 1.72779574 8.59765625 3.109375 C9.47679687 3.53226807 10.3559375 3.95516113 11.26171875 4.39086914 C12.18597656 4.83938232 13.11023438 5.28789551 14.0625 5.75 C15.95937423 6.66070046 17.85650721 7.57086219 19.75390625 8.48046875 C20.66156738 8.91665527 21.56922852 9.3528418 22.50439453 9.80224609 C25.49603626 11.23807023 28.4910448 12.66327392 31.5 14.0625 C32.2734375 14.42472656 33.046875 14.78695313 33.84375 15.16015625 C36.20761397 16.08086414 38.50331535 16.57362956 41 17 C41 17.66 41 18.32 41 19 C41.94875 19.268125 42.8975 19.53625 43.875 19.8125 C51.64333872 22.0365002 59.34771907 24.40441086 67 27 C68.54114407 27.52237767 70.08281017 28.04321781 71.625 28.5625 C72.29789062 28.79066406 72.97078125 29.01882813 73.6640625 29.25390625 C79.48283985 31.11241206 85.36763821 32.61478949 91.3125 34 C92.06740723 34.17660156 92.82231445 34.35320312 93.60009766 34.53515625 C98.12671545 35.58627369 102.65509967 36.58261441 107.22265625 37.44140625 C109.4271866 37.8847928 111.62049078 38.38393166 113.80859375 38.90234375 C157.91530564 49.23838193 206.63093022 48.16482945 251 40 C251.70060547 39.87249359 252.40121094 39.74498718 253.12304688 39.61361694 C263.66943469 37.69198667 274.13388874 35.55874589 284.5 32.8125 C287.50486699 32.11494159 289.9401618 31.80876011 293 32 C293 31.34 293 30.68 293 30 C293.68513672 29.80365967 294.37027344 29.60731934 295.07617188 29.4050293 C298.21841345 28.50251005 301.35920598 27.59504339 304.5 26.6875 C305.57765625 26.37876953 306.6553125 26.07003906 307.765625 25.75195312 C315.12958943 23.61909757 322.30641376 21.35082438 329.25 18.0625 C333.81542784 15.98225288 338.50556332 14.48784803 343.30078125 13.02734375 C345.98158206 12.00701001 347.73006465 10.70850145 350 9 C350.99 9 351.98 9 353 9 C361.21461415 29.71511395 361.21461415 29.71511395 361 39 C350.40208782 43.51408134 339.81211514 48.01794567 329 52 C328.38012207 52.22896973 327.76024414 52.45793945 327.12158203 52.69384766 C318.65799315 55.80262485 310.13198989 58.64407072 301.5 61.25 C300.68781006 61.49613037 299.87562012 61.74226074 299.03881836 61.99584961 C294.43207374 63.36338103 289.83685424 64.52593814 285.12304688 65.46386719 C282.91844275 65.96589029 282.91844275 65.96589029 280.60693359 66.99267578 C277.74759968 68.09752797 275.09831658 68.6032497 272.0703125 69.0703125 C270.38228516 69.33134766 270.38228516 69.33134766 268.66015625 69.59765625 C267.49355469 69.77167969 266.32695313 69.94570313 265.125 70.125 C263.96613281 70.30675781 262.80726563 70.48851562 261.61328125 70.67578125 C256.02236033 71.52560123 250.65666724 72.24737612 245 72 C245 72.66 245 73.32 245 74 C239.0392664 75.72773577 232.72390939 75.6894714 226.5625 76.0625 C225.83368622 76.10702301 225.10487244 76.15154602 224.35397339 76.19741821 C210.75809159 77.00057905 197.1799172 77.19304507 183.5625 77.1875 C182.15957199 77.1887236 182.15957199 77.1887236 180.728302 77.18997192 C164.35428163 77.18835353 147.92804594 76.96102271 131.6875 74.6875 C130.27633911 74.49619507 130.27633911 74.49619507 128.83666992 74.30102539 C121.80487285 73.31885249 114.8034008 72.17631294 107.8125 70.9375 C106.88590576 70.77531982 105.95931152 70.61313965 105.00463867 70.44604492 C104.14330322 70.28724854 103.28196777 70.12845215 102.39453125 69.96484375 C101.64018799 69.8268335 100.88584473 69.68882324 100.10864258 69.54663086 C98 69 98 69 96.01489258 67.99780273 C93.77183442 66.88700924 91.83291166 66.47851851 89.3671875 66.0703125 C88.48345459 65.9168335 87.59972168 65.76335449 86.68920898 65.60522461 C85.29617554 65.36751343 85.29617554 65.36751343 83.875 65.125 C77.35695136 63.95520707 71.33409571 62.72668097 65.28515625 59.94921875 C60.71183547 58.04953166 55.81841682 57.09283681 51 56 C51 55.34 51 54.68 51 54 C50.45214844 53.92523438 49.90429688 53.85046875 49.33984375 53.7734375 C41.7316983 52.51159874 34.89388088 49.75143048 27.83544922 46.77148438 C26.13701206 46.05758954 24.43015048 45.36382737 22.72265625 44.671875 C13.80358957 41.04455831 5.36547711 36.79582752 -3.015625 32.0703125 C-5.27907241 30.84947669 -7.57665595 29.85989628 -10 29 C-9.2011341 18.41502678 -4.91626393 9.28851506 0 0 Z " fill="#FDFEFB" transform="translate(338,425)"/>
<path d="M0 0 C3.34380499 0.00008128 6.68747303 -0.00687873 10.03125 -0.02050781 C32.90533122 -0.11221136 55.52582322 0.1311971 78.14868164 3.99780273 C79.17614502 4.16957031 80.2036084 4.34133789 81.26220703 4.51831055 C84.41528348 5.05637656 87.56366286 5.61568102 90.71118164 6.18530273 C91.70762695 6.36432129 92.70407227 6.54333984 93.73071289 6.7277832 C109.79350726 9.67771644 125.19682844 14.12684944 140.71118164 19.18530273 C142.79055294 19.85214337 144.86997875 20.51881407 146.94946289 21.18530273 C148.87053784 21.80875792 150.79113666 22.43368276 152.71118164 23.06030273 C153.59572021 23.34631348 154.48025879 23.63232422 155.39160156 23.92700195 C156.19831299 24.19528809 157.00502441 24.46357422 157.83618164 24.73999023 C158.54000977 24.97186035 159.24383789 25.20373047 159.96899414 25.44262695 C161.71118164 26.18530273 161.71118164 26.18530273 163.71118164 28.18530273 C159.30671975 34.73472715 154.82257659 41.22985832 150.02368164 47.49780273 C149.33918945 48.40143555 148.65469727 49.30506836 147.94946289 50.23608398 C145.71118164 52.18530273 145.71118164 52.18530273 142.77758789 52.57202148 C139.80842813 52.19756694 137.1798263 51.60756587 134.33618164 50.68530273 C133.46219727 50.40686523 132.58821289 50.12842773 131.68774414 49.84155273 C131.03547852 49.62499023 130.38321289 49.40842773 129.71118164 49.18530273 C129.71118164 48.52530273 129.71118164 47.86530273 129.71118164 47.18530273 C128.57680664 47.06155273 127.44243164 46.93780273 126.27368164 46.81030273 C114.93383635 45.38023343 114.93383635 45.38023343 110.89379883 43.20825195 C108.4686324 42.07162473 106.35360664 41.64144801 103.71118164 41.22045898 C102.74809082 41.06174316 101.785 40.90302734 100.79272461 40.73950195 C99.77581543 40.57724121 98.75890625 40.41498047 97.71118164 40.24780273 C85.30078644 38.20137729 85.30078644 38.20137729 79.58618164 36.56030273 C60.05742354 31.329893 37.90033954 32.02281698 17.78540039 32.05249023 C16.13776129 32.05181416 14.49012229 32.05084163 12.84248352 32.04959106 C9.42997261 32.04813373 6.01748825 32.050208 2.60498047 32.05493164 C-1.76494815 32.06068723 -6.13481611 32.05730117 -10.50474262 32.05135918 C-13.88903768 32.04775022 -17.27331826 32.04889268 -20.65761375 32.05148697 C-22.27034703 32.05215227 -23.88308164 32.05134173 -25.49581337 32.04900742 C-27.73715358 32.04646899 -29.97839381 32.05033562 -32.21972656 32.0559082 C-33.49193558 32.0567038 -34.76414459 32.05749939 -36.0749054 32.05831909 C-38.71867306 32.16277595 -40.777945 32.4557076 -43.28881836 33.18530273 C-45.46576063 33.36550968 -47.64634063 33.50348056 -49.82788086 33.61499023 C-51.12322754 33.68661377 -52.41857422 33.7582373 -53.75317383 33.83203125 C-54.43361755 33.8690213 -55.11406128 33.90601135 -55.81512451 33.94412231 C-75.82091404 33.46352011 -75.82091404 33.46352011 -93.28881836 39.18530273 C-95.70323221 39.6567741 -98.11403558 40.08696836 -100.53881836 40.49780273 C-109.24240295 42.05073252 -117.4572373 44.58185495 -125.84350586 47.36499023 C-127.00108398 47.73881836 -128.15866211 48.11264648 -129.35131836 48.49780273 C-130.39416992 48.84456055 -131.43702148 49.19131836 -132.51147461 49.54858398 C-135.40451733 50.21182725 -136.61968478 50.41805721 -139.28881836 49.18530273 C-146.13299456 43.04870115 -151.69003627 35.10473128 -156.28881836 27.18530273 C-156.28881836 26.52530273 -156.28881836 25.86530273 -156.28881836 25.18530273 C-133.70628082 14.52739334 -106.56747798 5.25960534 -81.28881836 6.18530273 C-81.28881836 5.52530273 -81.28881836 4.86530273 -81.28881836 4.18530273 C-80.4522168 4.13631836 -79.61561523 4.08733398 -78.75366211 4.03686523 C-72.49891493 3.63512068 -66.36564428 3.09753619 -60.16381836 2.18530273 C-40.26691363 -0.5310573 -20.04048996 -0.0025498 0 0 Z " fill="#FDFEFB" transform="translate(508.288818359375,599.814697265625)"/>
<path d="M0 0 C0.99 0.33 1.98 0.66 3 1 C1.68 2.32 0.36 3.64 -1 5 C-0.33282959 4.98952637 0.33434082 4.97905273 1.02172852 4.96826172 C17.88358416 4.74061298 34.91174097 4.69955273 51.578125 7.62890625 C52.77695312 7.81259766 52.77695312 7.81259766 54 8 C54.33 7.67 54.66 7.34 55 7 C56.36197484 6.97114936 57.72559924 7.01322134 59.0859375 7.0859375 C59.92817871 7.12912109 60.77041992 7.17230469 61.63818359 7.21679688 C62.54133301 7.26900391 63.44448242 7.32121094 64.375 7.375 C65.29748535 7.42462891 66.2199707 7.47425781 67.17041016 7.52539062 C72.40689007 7.81738421 77.61513382 8.2147992 82.83203125 8.75390625 C85.6246935 8.97084549 88.40070795 9.10772136 91.19921875 9.21484375 C92.15973145 9.25222656 93.12024414 9.28960938 94.10986328 9.328125 C96.02595206 9.39910299 97.94230822 9.46330894 99.85888672 9.51953125 C105.32783331 9.72233761 110.45463973 10.36884231 115.80151367 11.53442383 C118.40070876 12.08485859 120.97899875 12.39819989 123.625 12.625 C124.88183594 12.73714844 124.88183594 12.73714844 126.1640625 12.8515625 C126.76992188 12.90054688 127.37578125 12.94953125 128 13 C128 13.66 128 14.32 128 15 C130.31 15.66 132.62 16.32 135 17 C135.33 18.65 135.66 20.3 136 22 C129.86555792 27.23231825 124.25967571 29.42263937 116.4375 30.625 C114.95697181 30.86682389 113.47650149 31.10900237 111.99609375 31.3515625 C111.30757324 31.46145508 110.61905273 31.57134766 109.90966797 31.68457031 C107.59436426 32.06700094 105.29650244 32.51796186 103 33 C103 33.66 103 34.32 103 35 C90.07621251 39.21481124 78.1148204 40.87537678 64.5625 41.25 C62.68597387 41.31707302 60.80950856 41.38586764 58.93310547 41.45629883 C54.20058368 41.62873122 49.46764074 41.77515839 44.73406982 41.91534424 C41.26234522 42.02284021 37.79155044 42.1505389 34.32060242 42.28042603 C31.16258303 42.39769304 28.00433098 42.50686037 24.84591675 42.61291504 C23.39138218 42.66176262 21.93689102 42.71192445 20.48245239 42.7635498 C12.53236919 43.0367686 4.79498924 42.98423642 -3.11962891 42.13208008 C-5.98950658 41.89550528 -5.98950658 41.89550528 -8.73768616 42.48167419 C-12.2343627 43.03723622 -15.53733671 43.14141502 -19.07739258 43.16113281 C-20.10111717 43.16858017 -20.10111717 43.16858017 -21.14552307 43.17617798 C-23.39520307 43.19072645 -25.64481198 43.19759798 -27.89453125 43.203125 C-28.67423468 43.20595238 -29.4539381 43.20877975 -30.25726891 43.21169281 C-34.40336821 43.22667413 -38.54943297 43.23590374 -42.69555664 43.24023438 C-46.07294769 43.24457787 -49.45007735 43.25830819 -52.82739258 43.28125 C-70.60991231 43.39980758 -88.04177724 43.32616888 -105.67749023 40.70239258 C-111.51976279 39.851339 -117.35438151 39.62167892 -123.25 39.4375 C-134.30344561 39.0538827 -144.71035556 38.43867015 -155 34 C-155 33.34 -155 32.68 -155 32 C-156.98 32 -158.96 32 -161 32 C-161.33 31.34 -161.66 30.68 -162 30 C-157.24811254 30.91491381 -152.51705539 31.83820052 -147.8359375 33.0703125 C-113.71005189 41.472857 -70.80490962 37.73066885 -38.96313477 22.90795898 C-36.37849777 21.71255232 -33.73961058 20.71790798 -31.0625 19.75 C-30.14597656 19.41484375 -29.22945312 19.0796875 -28.28515625 18.734375 C-26 18 -26 18 -24 18 C-24 17.34 -24 16.68 -24 16 C-22.98292969 15.45472656 -22.98292969 15.45472656 -21.9453125 14.8984375 C-17.09856296 12.28038719 -12.2690839 9.63234644 -7.5 6.875 C-6.30890625 6.19050781 -6.30890625 6.19050781 -5.09375 5.4921875 C-2.85661368 3.8978105 -1.52081002 2.27146625 0 0 Z " fill="#345828" transform="translate(621,678)"/>
<path d="M0 0 C0.99 0.495 0.99 0.495 2 1 C1.34 1.66 0.68 2.32 0 3 C4.30056958 3.29077759 8.60150032 3.57527127 12.90283203 3.85449219 C14.35932017 3.9498632 15.81570607 4.04681156 17.27197266 4.14550781 C25.85156329 4.72576998 34.35743012 5.10481119 42.96313477 4.99243164 C46.92517292 5.00230568 50.82036447 5.34288575 54.76171875 5.71875 C57.83352143 5.98554106 60.90263539 6.16758307 63.98168945 6.32641602 C74.99723351 6.89733213 85.95695401 7.96237668 96.87109375 9.5703125 C99.87731349 10.08230188 99.87731349 10.08230188 102.4375 9.875 C105.44366157 10.02164203 107.78562504 11.02130716 110.55078125 12.1484375 C114.58046314 13.54950712 118.7641214 14.26167102 122.94921875 15.05859375 C126.44220771 16.1364559 128.44742988 17.39060087 131 20 C131 21.32 131 22.64 131 24 C131.66 24 132.32 24 133 24 C132.73242331 27.21092031 132.25690343 28.71823495 130.0625 31.125 C126.62936954 33.22691661 123.46189614 34.23409221 119.59765625 35.28125 C117.23607266 35.93468065 114.98503146 36.71626373 112.6875 37.5625 C107.89246357 39.20358199 103.03028138 39.83673968 98.015625 40.47265625 C95.08036538 40.98594647 92.75027572 41.88873415 90 43 C82.97634602 44.4568911 76.1543556 45.12775635 69 45 C68.20851563 45.165 67.41703125 45.33 66.6015625 45.5 C63.92217028 46.01495826 61.59658496 46.03092754 58.875 45.9375 C55.01919021 45.89637136 51.52746531 46.17073092 47.75 46.9375 C38.47765536 48.80788712 29.00072662 49.10288748 19.56312561 48.96780396 C17.02669996 48.99966462 14.58201409 49.22350638 12.06030273 49.49169922 C2.46698466 50.31797902 -7.15650251 50.14373488 -16.77734375 50.1328125 C-18.87813834 50.13348721 -20.97893285 50.13445863 -23.07972717 50.13571167 C-27.45949047 50.13717849 -31.83923324 50.13506539 -36.21899414 50.13037109 C-41.82991368 50.12464963 -47.44078562 50.12797447 -53.05170345 50.13394356 C-57.37966776 50.1375556 -61.70762076 50.13640804 -66.0355854 50.13381577 C-68.10523039 50.13314956 -70.17487641 50.13396421 -72.24452019 50.13629532 C-75.13040778 50.13883507 -78.0162178 50.13496363 -80.90209961 50.12939453 C-81.75359085 50.13141876 -82.60508209 50.13344299 -83.4823761 50.13552856 C-87.46525388 50.12129183 -91.10733066 49.95008713 -95 49 C-96.40507843 48.8745148 -97.81332966 48.78031696 -99.22265625 48.71875 C-100.0027002 48.68201172 -100.78274414 48.64527344 -101.58642578 48.60742188 C-102.81208252 48.55424805 -102.81208252 48.55424805 -104.0625 48.5 C-128.68957567 47.3172245 -128.68957567 47.3172245 -137.4140625 45.49609375 C-140.09994817 44.98082565 -142.71040828 44.75204255 -145.4375 44.5625 C-149.6132977 44.19551911 -153.08038079 43.55151594 -157 42 C-158.87455614 41.3320863 -160.74960118 40.66554391 -162.625 40 C-168.74198658 37.80679473 -172.47274482 35.77876936 -177 31 C-174 30 -174 30 -171.25 31.3125 C-169.64125 32.1478125 -169.64125 32.1478125 -168 33 C-165.68367576 33.77210808 -163.36534261 34.38501092 -161 35 C-161 35.66 -161 36.32 -161 37 C-159.96875 37.12375 -158.9375 37.2475 -157.875 37.375 C-154 38 -154 38 -151.0625 39 C-145.0426287 40.96567226 -138.81098162 41.10290597 -132.5276947 41.28417969 C-124.59562098 41.52712947 -116.80160476 41.94185442 -108.94784546 43.10943604 C-91.47091665 45.64803035 -74.0001381 45.38408221 -56.38781738 45.26428223 C-53.00014994 45.24502757 -49.612536 45.24111567 -46.22482109 45.2375679 C-42.1472521 45.23241298 -38.06973075 45.21792849 -33.9921875 45.203125 C-32.84789087 45.20030392 -32.84789087 45.20030392 -31.68047714 45.19742584 C-29.51722518 45.19051164 -27.35412165 45.17686625 -25.19091797 45.16113281 C-23.96726532 45.15430481 -22.74361267 45.14747681 -21.48287964 45.14044189 C-17.9737282 45.06252147 -17.9737282 45.06252147 -14.4332428 44.46139526 C-11.05994376 44.00805587 -8.25058359 44.09781231 -4.87719727 44.45654297 C1.80965746 45.04992551 8.33413671 44.96991102 15.03515625 44.6953125 C16.23450302 44.65187714 17.43384979 44.60844177 18.66954041 44.56369019 C22.46748616 44.42432254 26.26494918 44.27470252 30.0625 44.125 C32.58005437 44.03190741 35.09763249 43.93945488 37.61523438 43.84765625 C43.64498024 43.62505931 49.6738336 43.38503661 55.70248413 43.13461304 C58.78946424 43.00859461 61.87668063 42.8928896 64.96411133 42.77856445 C66.73391302 42.70587858 68.5036905 42.63259946 70.2734375 42.55859375 C71.42979454 42.51951401 71.42979454 42.51951401 72.60951233 42.47964478 C79.07185441 42.18830766 84.96306882 40.73754399 91.12890625 38.83984375 C94 38 94 38 97 38 C97 37.34 97 36.68 97 36 C103.63113661 33.75469415 110.06440146 32.43826731 117.01953125 31.625 C121.78807518 30.62504321 125.20981345 27.94792287 129 25 C128.67 23.35 128.34 21.7 128 20 C126.02 19.34 124.04 18.68 122 18 C122 17.34 122 16.68 122 16 C121.39414062 16.02320313 120.78828125 16.04640625 120.1640625 16.0703125 C119.32617188 16.08835937 118.48828125 16.10640625 117.625 16.125 C116.81289063 16.14820313 116.00078125 16.17140625 115.1640625 16.1953125 C112.41010217 16.02531495 110.03040252 15.61174272 107.34765625 15.0234375 C101.82380083 13.86381817 96.44218186 13.63412906 90.8125 13.5 C81.33220499 13.19737411 71.92880435 12.56700213 62.48754883 11.66015625 C54.15460652 10.66251302 54.15460652 10.66251302 46 12 C43.47417431 11.77406605 41.00637347 11.48640591 38.5 11.125 C27.45147771 9.58687239 16.46097492 8.81933996 5.3125 8.4375 C4.12205078 8.39431641 2.93160156 8.35113281 1.70507812 8.30664062 C-1.19653034 8.20176321 -4.09820635 8.09959804 -7 8 C-5.31847927 4.25979502 -3.30960527 2.43865652 0 0 Z " fill="#22290C" transform="translate(627,675)"/>
<path d="M0 0 C0.66 0.33 1.32 0.66 2 1 C1.34 1.66 0.68 2.32 0 3 C4.30056958 3.29077759 8.60150032 3.57527127 12.90283203 3.85449219 C14.35932017 3.9498632 15.81570607 4.04681156 17.27197266 4.14550781 C25.85156329 4.72576998 34.35743012 5.10481119 42.96313477 4.99243164 C46.92517292 5.00230568 50.82036447 5.34288575 54.76171875 5.71875 C57.83352143 5.98554106 60.90263539 6.16758307 63.98168945 6.32641602 C74.99723351 6.89733213 85.95695401 7.96237668 96.87109375 9.5703125 C99.87731349 10.08230188 99.87731349 10.08230188 102.4375 9.875 C105.44366157 10.02164203 107.78562504 11.02130716 110.55078125 12.1484375 C114.58046314 13.54950712 118.7641214 14.26167102 122.94921875 15.05859375 C126.44220771 16.1364559 128.44742988 17.39060087 131 20 C131 21.32 131 22.64 131 24 C131.66 24 132.32 24 133 24 C132.73242331 27.21092031 132.25690343 28.71823495 130.0625 31.125 C126.62936954 33.22691661 123.46189614 34.23409221 119.59765625 35.28125 C117.23607266 35.93468065 114.98503146 36.71626373 112.6875 37.5625 C107.89246357 39.20358199 103.03028138 39.83673968 98.015625 40.47265625 C95.08036538 40.98594647 92.75027572 41.88873415 90 43 C82.97634602 44.4568911 76.1543556 45.12775635 69 45 C67.7625 45.2475 67.7625 45.2475 66.5 45.5 C62.96773549 46.2064529 59.59976304 46.06101293 56 46 C56 45.34 56 44.68 56 44 C58.70645312 43.09784896 60.3543066 42.86715647 63.140625 42.82421875 C72.94932796 42.56780104 81.73384422 41.73142363 91.12890625 38.83984375 C94 38 94 38 97 38 C97 37.34 97 36.68 97 36 C103.63113661 33.75469415 110.06440146 32.43826731 117.01953125 31.625 C121.78807518 30.62504321 125.20981345 27.94792287 129 25 C128.67 23.35 128.34 21.7 128 20 C126.02 19.34 124.04 18.68 122 18 C122 17.34 122 16.68 122 16 C121.39414062 16.02320313 120.78828125 16.04640625 120.1640625 16.0703125 C119.32617188 16.08835937 118.48828125 16.10640625 117.625 16.125 C116.40683594 16.15980469 116.40683594 16.15980469 115.1640625 16.1953125 C112.41010217 16.02531495 110.03040252 15.61174272 107.34765625 15.0234375 C101.82380083 13.86381817 96.44218186 13.63412906 90.8125 13.5 C81.33220499 13.19737411 71.92880435 12.56700213 62.48754883 11.66015625 C54.15460652 10.66251302 54.15460652 10.66251302 46 12 C43.47417431 11.77406605 41.00637347 11.48640591 38.5 11.125 C27.45147771 9.58687239 16.46097492 8.81933996 5.3125 8.4375 C4.12205078 8.39431641 2.93160156 8.35113281 1.70507812 8.30664062 C-1.19653034 8.20176321 -4.09820635 8.09959804 -7 8 C-5.31847927 4.25979502 -3.30960527 2.43865652 0 0 Z " fill="#0E2E17" transform="translate(627,675)"/>
<path d="M0 0 C4.9215099 0.97019027 9.8361403 1.95616318 14.7331543 3.04394531 C28.14606296 5.92915297 41.12272867 6.65425955 54.8125 6.75 C56.88478932 6.77826071 58.95705643 6.80820151 61.02929688 6.83984375 C66.01948943 6.91248765 71.00942275 6.96278322 76 7 C75.67 7.66 75.34 8.32 75 9 C84.57 9.66 94.14 10.32 104 11 C104 10.34 104 9.68 104 9 C105.43737706 8.97193841 106.87493423 8.95315002 108.3125 8.9375 C109.51326172 8.92009766 109.51326172 8.92009766 110.73828125 8.90234375 C113.54261563 8.98630586 116.27205982 9.19836536 119.0625 9.46875 C125.26478723 10.05926936 131.46290083 10.32998282 137.6875 10.5625 C138.78255859 10.60568359 139.87761719 10.64886719 141.00585938 10.69335938 C143.67048597 10.79808269 146.33518311 10.90025779 149 11 C148.67 11.66 148.34 12.32 148 13 C139.04417383 13.07048056 130.08844757 13.12329616 121.13240147 13.15543652 C116.97073418 13.17088642 112.80926079 13.19172961 108.64770508 13.22631836 C91.04077408 13.36884034 73.80815922 13.29928037 56.34448242 10.70458984 C50.49458151 9.85363998 44.65318934 9.62171986 38.75 9.4375 C27.69656262 9.05391927 17.28962867 8.43866335 7 4 C7 3.34 7 2.68 7 2 C5.02 2 3.04 2 1 2 C0.67 1.34 0.34 0.68 0 0 Z " fill="#494B13" transform="translate(459,708)"/>
<path d="M0 0 C0.33 0 0.66 0 1 0 C1.495 5.445 1.495 5.445 2 11 C1.01 10.34 0.02 9.68 -1 9 C-4.18191506 9.95558533 -4.18191506 9.95558533 -7.625 11.625 C-8.25164551 11.90770752 -8.87829102 12.19041504 -9.52392578 12.48168945 C-11.35461617 13.30943279 -13.17748785 14.15440211 -15 15 C-16.62350152 15.73249699 -18.24823435 16.46228105 -19.875 17.1875 C-20.57238281 17.49945313 -21.26976562 17.81140625 -21.98828125 18.1328125 C-25.27866838 19.55119297 -28.63466633 20.7731951 -32 22 C-33.31270701 22.49945625 -34.62520553 22.99946081 -35.9375 23.5 C-50.91830664 29.07826581 -66.29470797 33.02211001 -81.94384766 36.21240234 C-87.11013738 37.28451413 -92.02629056 38.56499946 -96.97631836 40.40283203 C-100.39438992 41.41147035 -103.46063339 41.2528119 -107 41 C-107.33 40.67 -107.66 40.34 -108 40 C-110.67058851 39.85884839 -113.32432238 39.95752893 -116 40 C-116 39.67 -116 39.34 -116 39 C-115.04222656 38.86424561 -114.08445312 38.72849121 -113.09765625 38.58862305 C-109.51052976 38.07772496 -105.9252279 37.55486731 -102.34033203 37.02856445 C-100.79489885 36.80334328 -99.24900251 36.58127496 -97.70263672 36.36254883 C-95.46710111 36.04576376 -93.23353254 35.71729766 -91 35.38671875 C-90.31945557 35.29283371 -89.63891113 35.19894867 -88.93774414 35.10221863 C-84.65360985 34.45398383 -80.83808356 33.32969086 -76.8216095 31.70095825 C-73.85177423 30.55816088 -70.78348845 29.90346776 -67.6875 29.1875 C-46.21171314 24.02952642 -25.19507425 16.42349358 -5.27734375 6.91796875 C-3 6 -3 6 0 6 C0 4.02 0 2.04 0 0 Z " fill="#26E46B" transform="translate(699,458)"/>
<path d="M0 0 C0.99 0.495 0.99 0.495 2 1 C0.16666667 1.91666667 -1.66666667 2.83333333 -3.5 3.75 C-4.59183594 4.29785156 -5.68367188 4.84570312 -6.80859375 5.41015625 C-8.69024685 6.34752811 -10.57648547 7.27594802 -12.47265625 8.18359375 C-15.8570925 9.80938836 -18.40852937 11.31723095 -21 14 C-22.35713768 14.91606793 -23.71633536 15.82923696 -25.0859375 16.7265625 C-34.11749018 22.73530979 -42.18633874 29.50385501 -50 37 C-50.89041992 37.84159668 -50.89041992 37.84159668 -51.79882812 38.70019531 C-67.66085617 53.74348469 -83.14808526 72.30248417 -91 93 C-89.86516076 96.40451771 -89.44722063 96.6005564 -86.4375 98.1875 C-85.303125 98.785625 -84.16875 99.38375 -83 100 C-83.99 100.495 -83.99 100.495 -85 101 C-87.3828125 100.00390625 -87.3828125 100.00390625 -90.125 98.5625 C-91.49011719 97.85287109 -91.49011719 97.85287109 -92.8828125 97.12890625 C-93.58148438 96.75636719 -94.28015625 96.38382812 -95 96 C-89.94541114 83.69457919 -83.12741379 72.25080562 -75.5 61.375 C-74.98381104 60.63459473 -74.46762207 59.89418945 -73.93579102 59.13134766 C-72.67942966 57.37967592 -71.34661965 55.68327456 -70 54 C-69.34 54 -68.68 54 -68 54 C-67.76095947 53.27490234 -67.52191895 52.54980469 -67.27563477 51.80273438 C-65.80634381 48.57451233 -64.07989749 46.67653314 -61.58984375 44.15625 C-60.24116211 42.79052856 -60.24116211 42.79052856 -58.86523438 41.3972168 C-57.89042457 40.43036588 -56.9144885 39.46464933 -55.9375 38.5 C-55.44435303 38.00956207 -54.95120605 37.51912415 -54.44311523 37.01382446 C-45.87576528 28.51775347 -36.9480407 20.84477466 -27 14 C-26.36594238 13.55849609 -25.73188477 13.11699219 -25.07861328 12.66210938 C-18.08185242 7.83226255 -11.12632362 3.68216575 -3 1 C-2.01 0.67 -1.02 0.34 0 0 Z " fill="#F2D602" transform="translate(433,329)"/>
<path d="M0 0 C2.97936216 0.1424517 5.9584442 0.28887994 8.9375 0.4375 C10.18370117 0.49647461 10.18370117 0.49647461 11.45507812 0.55664062 C26.12781783 1.29884147 26.12781783 1.29884147 33.125 3.3125 C40.2105285 5.18673657 47.40609035 6.32396931 54.63916016 7.46606445 C59.95207981 8.33800461 64.90564854 9.49164025 69.97924805 11.29541016 C72.79753506 12.27808218 75.6627697 12.9875651 78.5625 13.6875 C79.59503906 13.93886719 80.62757813 14.19023438 81.69140625 14.44921875 C82.45324219 14.63097656 83.21507812 14.81273437 84 15 C84 15.66 84 16.32 84 17 C85.175625 17.12375 86.35125 17.2475 87.5625 17.375 C91.54120426 17.86435935 95.17766559 18.8055205 99 20 C95.69984002 24.13937592 92.82675589 27.58662205 88 30 C89.14876686 26.55369942 90.19140915 26.08379321 93 24 C93 23.34 93 22.68 93 22 C88.39418088 20.33122496 83.89362922 18.91234999 79.0625 18.0625 C75.655193 17.43497466 72.77827406 16.54923802 69.625 15.125 C62.26224128 11.98792633 54.2720551 10.92204428 46.44384766 9.4753418 C43.25573091 8.85523557 40.09663427 8.12746614 36.93676758 7.37768555 C34.27814934 6.85923321 31.70017833 6.93863231 29 7 C27.33253222 6.67069757 25.66604338 6.33643476 24 6 C21.35494642 5.62526128 18.71275205 5.2697043 16.0625 4.9375 C15.37220703 4.84662109 14.68191406 4.75574219 13.97070312 4.66210938 C9.95351935 4.15567768 6.0477 3.90498357 2 4 C1.34 2.68 0.68 1.36 0 0 Z " fill="#9ADE3B" transform="translate(554,632)"/>
<path d="M0 0 C1.50433594 0.01353516 1.50433594 0.01353516 3.0390625 0.02734375 C3.80992187 0.03894531 4.58078125 0.05054688 5.375 0.0625 C-5.47032563 7.29271709 -20.33746434 6.84994921 -32.875 7.25 C-34.75785796 7.32140235 -36.64067053 7.39401073 -38.5234375 7.46777344 C-42.34931212 7.61408564 -46.17533588 7.74914857 -50.00195312 7.87451172 C-54.52739423 8.02288524 -59.05158827 8.19316744 -63.5758667 8.37324524 C-66.8274429 8.50083214 -70.0793195 8.61801372 -73.3314209 8.73135376 C-74.8530877 8.78518994 -76.37465961 8.84178326 -77.89611816 8.9012146 C-79.99305758 8.98108611 -82.0899694 9.04727091 -84.1875 9.109375 C-85.36441406 9.14901367 -86.54132812 9.18865234 -87.75390625 9.22949219 C-90.625 9.0625 -90.625 9.0625 -93.625 7.0625 C-89.01269714 5.14070714 -85.49639038 3.77471753 -80.5 4.5 C-61.7885233 6.59416236 -40.96561265 5.88764457 -22.46484375 2.53515625 C-18.32543119 1.84620313 -14.17295348 1.58018175 -9.98828125 1.30859375 C-6.4146444 0.93646297 -3.76867895 -0.04382185 0 0 Z " fill="#28421D" transform="translate(718.625,711.9375)"/>
<path d="M0 0 C7.41102193 0.60575527 14.69893756 0.47497815 22.11334229 0.18307495 C25.82762511 0.03725233 29.54270123 -0.08445195 33.2578125 -0.20703125 C33.98380646 -0.23142776 34.70980042 -0.25582428 35.45779419 -0.28096008 C44.19338673 -0.56416086 52.92517986 -0.5614653 61.6640625 -0.46484375 C61.6640625 -0.13484375 61.6640625 0.19515625 61.6640625 0.53515625 C13.67188268 3.06649042 -34.29306587 4.91107625 -82.3359375 2.53515625 C-82.3359375 2.20515625 -82.3359375 1.87515625 -82.3359375 1.53515625 C-81.04047501 1.51969505 -81.04047501 1.51969505 -79.71884155 1.50392151 C-71.5679018 1.40582193 -63.41703232 1.30329009 -55.26621056 1.19581699 C-51.07609978 1.14072341 -46.88598186 1.08732568 -42.69580078 1.0378418 C-38.64978838 0.98999743 -34.60385674 0.93764845 -30.55794144 0.8822155 C-29.01665898 0.86188256 -27.47535446 0.84315504 -25.93403244 0.82608223 C-23.77023119 0.80183637 -21.60657977 0.77181121 -19.44287109 0.74047852 C-17.59754288 0.71716209 -17.59754288 0.71716209 -15.7149353 0.69337463 C-0.28850214 -0.02895354 -0.28850214 -0.02895354 0 0 Z " fill="#2A380F" transform="translate(621.3359375,719.46484375)"/>
<path d="M0 0 C8.25931065 -0.13664301 15.79170455 0.04903151 23.77001953 2.38037109 C28.74889141 3.76381502 33.78780336 4.92137639 38.8125 6.125 C39.95654297 6.40214844 41.10058594 6.67929687 42.27929688 6.96484375 C43.36919922 7.22652344 44.45910156 7.48820313 45.58203125 7.7578125 C46.57436768 7.9964502 47.5667041 8.23508789 48.58911133 8.48095703 C50.91484545 9.07015625 50.91484545 9.07015625 53 9 C53 9.66 53 10.32 53 11 C54.01578125 11.24234375 55.0315625 11.4846875 56.078125 11.734375 C64.5372991 13.78264612 72.78078953 16.11479043 81 19 C82.9990617 19.669475 84.99882939 20.33685549 87 21 C86.505 22.485 86.505 22.485 86 24 C78.3613285 22.01362834 70.90199061 19.68290798 63.4375 17.125 C46.96446445 11.58424232 30.69450217 7.38044729 13.6171875 4.11328125 C9.02953616 3.2283105 4.51859747 2.18653819 0 1 C0 0.67 0 0.34 0 0 Z " fill="#4DE25D" transform="translate(586,603)"/>
<path d="M0 0 C0.66 0 1.32 0 2 0 C2 0.99 2 1.98 2 3 C2.66 3 3.32 3 4 3 C4.99 6.3 5.98 9.6 7 13 C-0.36040879 17.441626 -7.8794887 20.23515925 -16 23 C-17.35703431 23.49216385 -18.7118276 23.99063626 -20.0625 24.5 C-20.66578125 24.726875 -21.2690625 24.95375 -21.890625 25.1875 C-23.59282184 25.84316101 -25.28951321 26.51310473 -26.984375 27.1875 C-44.25892857 34 -44.25892857 34 -52 34 C-52 34.66 -52 35.32 -52 36 C-54.03959477 36.50838564 -56.08179138 37.00633886 -58.125 37.5 C-59.26195312 37.7784375 -60.39890625 38.056875 -61.5703125 38.34375 C-64.81466698 38.96453765 -67.70814457 39.12006768 -71 39 C-68.67360727 36.27558551 -66.91154933 35.4802503 -63.4296875 34.75390625 C-62.5325 34.55603516 -61.6353125 34.35816406 -60.7109375 34.15429688 C-59.77507813 33.95900391 -58.83921875 33.76371094 -57.875 33.5625 C-51.56115846 32.23819849 -45.83038531 30.73427998 -40.01977539 27.88256836 C-37.8679455 26.94229699 -35.8636309 26.45412782 -33.5625 26 C-24.25871381 24.14343501 -15.52225893 19.53455098 -6.875 15.75 C-5.823125 15.29109375 -4.77125 14.8321875 -3.6875 14.359375 C-1.12440637 13.24093415 1.43807793 12.12112119 4 11 C3.505 7.535 3.505 7.535 3 4 C2.34 4 1.68 4 1 4 C0.505 2.02 0.505 2.02 0 0 Z " fill="#22E468" transform="translate(683,421)"/>
<path d="M0 0 C2.99233399 0.71180231 5.34109514 0.88888729 8.3828125 0.8046875 C10.72607544 1.43556598 13.0584523 2.10737944 15.3828125 2.8046875 C21.66424667 4.51668622 27.81903763 5.16022157 34.30859375 5.58984375 C38.0306314 5.84996074 41.68468667 6.31160406 45.3828125 6.8046875 C48.3816333 7.14889177 51.38201412 7.47821175 54.3828125 7.8046875 C54.0528125 8.7946875 53.7228125 9.7846875 53.3828125 10.8046875 C46.84591587 10.95875865 40.64475856 10.60962785 34.1953125 9.5546875 C33.3501709 9.42118896 32.5050293 9.28769043 31.63427734 9.15014648 C28.88224509 8.71071474 26.13261461 8.2578473 23.3828125 7.8046875 C21.9299585 7.57193115 21.9299585 7.57193115 20.44775391 7.33447266 C9.91285533 5.64274971 -0.38114776 3.85274482 -10.58203125 0.6796875 C-14.54579684 -0.4630197 -18.52617334 -1.11951777 -22.60546875 -1.703125 C-23.60126953 -1.94675781 -23.60126953 -1.94675781 -24.6171875 -2.1953125 C-24.9471875 -2.8553125 -25.2771875 -3.5153125 -25.6171875 -4.1953125 C-17.89670438 -6.76880687 -7.64170862 -2.18562439 0 0 Z " fill="#CCD711" transform="translate(439.6171875,459.1953125)"/>
<path d="M0 0 C0.66 0 1.32 0 2 0 C2 0.66 2 1.32 2 2 C3.52524292 2.01401855 3.52524292 2.01401855 5.08129883 2.02832031 C25.73193762 2.24812123 46.24479393 3.01399808 66.8125 4.9375 C67.75122955 5.02286011 68.68995911 5.10822021 69.65713501 5.19616699 C72.32077524 5.44163897 74.98274154 5.70012558 77.64453125 5.96484375 C78.4344043 6.0388591 79.22427734 6.11287445 80.03808594 6.18913269 C83.73079463 6.57740835 86.82618606 6.99126364 90 9 C83.88036498 9.10470858 77.90696209 8.96882912 71.82421875 8.29296875 C68.24144657 7.92131188 64.65466534 7.63594356 61.0625 7.375 C59.79535156 7.27960937 58.52820313 7.18421875 57.22265625 7.0859375 C53.98286885 6.81604115 53.98286885 6.81604115 51 8 C48.47417431 7.77406605 46.00637347 7.48640591 43.5 7.125 C32.45147771 5.58687239 21.46097492 4.81933996 10.3125 4.4375 C9.12205078 4.39431641 7.93160156 4.35113281 6.70507812 4.30664062 C3.80346966 4.20176321 0.90179365 4.09959804 -2 4 C-1.34 2.68 -0.68 1.36 0 0 Z " fill="#16411B" transform="translate(622,679)"/>
<path d="M0 0 C4.74625606 0.91936419 9.4771256 1.84581477 14.1640625 3.03515625 C32.74371012 7.45838037 52.00794318 6.83889736 71 7 C71 7.33 71 7.66 71 8 C65.64979716 8.74800618 60.42587698 9.15916668 55.01953125 9.16796875 C53.9174659 9.17296135 53.9174659 9.17296135 52.7931366 9.17805481 C51.24775816 9.18308241 49.70236903 9.18546444 48.15698242 9.18530273 C45.83558504 9.18747836 43.51467236 9.20564883 41.19335938 9.22460938 C29.38628942 9.26969468 17.98818219 8.74000016 7 4 C7 3.34 7 2.68 7 2 C5.02 2 3.04 2 1 2 C0.67 1.34 0.34 0.68 0 0 Z " fill="#636823" transform="translate(459,708)"/>
<path d="M0 0 C0 0.33 0 0.66 0 1 C-10.7421875 3.1484375 -10.7421875 3.1484375 -12.80737305 3.55981445 C-14.33573008 3.86664306 -15.86317571 4.17803164 -17.38989258 4.49291992 C-33.16462434 7.72128734 -48.91476371 9.46688931 -65 10 C-63 7 -63 7 -60.82373047 6.5234375 C-59.4839917 6.44996094 -59.4839917 6.44996094 -58.1171875 6.375 C-57.12283691 6.30998291 -56.12848633 6.24496582 -55.10400391 6.17797852 C-54.03843262 6.11924561 -52.97286133 6.0605127 -51.875 6 C-42.01111783 5.32272383 -32.68677295 3.99176375 -23 2 C-19.77558958 1.38797472 -16.54578999 0.81300583 -13.3125 0.25 C-12.55727051 0.11021729 -11.80204102 -0.02956543 -11.02392578 -0.17358398 C-7.07218669 -0.85631947 -3.875028 -1.13117188 0 0 Z " fill="#6CDF3F" transform="translate(614,460)"/>
<path d="M0 0 C1.20166054 -0.00021904 1.20166054 -0.00021904 2.42759705 -0.0004425 C5.04087152 0.00024684 7.65407216 0.00799278 10.26733398 0.01586914 C12.09293072 0.0177368 13.91852795 0.01915906 15.74412537 0.02015686 C20.52309581 0.02395461 25.30203533 0.03376117 30.08099365 0.04486084 C34.96797263 0.05513423 39.85495667 0.05966712 44.74194336 0.06469727 C54.31161832 0.07538617 63.88127045 0.09242925 73.45092773 0.11352539 C73.45092773 0.44352539 73.45092773 0.77352539 73.45092773 1.11352539 C72.69639313 1.12383286 71.94185852 1.13414032 71.16445923 1.14476013 C64.01545913 1.24318464 56.86653577 1.34575813 49.7176609 1.45286465 C46.04332817 1.50777163 42.36898717 1.56113573 38.69458008 1.61083984 C35.14131944 1.6589642 31.58814288 1.71131632 28.03498459 1.76646614 C26.03562191 1.79643515 24.03619689 1.82214882 22.03677368 1.84776306 C15.80813057 1.94790698 9.67850065 2.19643494 3.48770142 2.89537048 C1.09054431 3.15212537 -1.27171751 3.22815465 -3.68188477 3.21118164 C-4.50688477 3.20795898 -5.33188477 3.20473633 -6.18188477 3.20141602 C-7.00430664 3.19303711 -7.82672852 3.1846582 -8.67407227 3.17602539 C-9.53516602 3.17151367 -10.39625977 3.16700195 -11.28344727 3.16235352 C-13.37202012 3.15075033 -15.46055634 3.13282379 -17.54907227 3.11352539 C-17.54907227 2.45352539 -17.54907227 1.79352539 -17.54907227 1.11352539 C-11.65701533 0.38118689 -5.93322853 -0.02904617 0 0 Z " fill="#B0D400" transform="translate(474.549072265625,597.886474609375)"/>
<path d="M0 0 C-5.93993337 5.93993337 -19.48292185 6.74678238 -27.5859375 8.2734375 C-30.49907119 8.89339501 -33.14941591 9.66232819 -35.9375 10.6875 C-40.11528319 12.20164913 -43.57231701 12.31626307 -48 12 C-48.33 11.67 -48.66 11.34 -49 11 C-51.67058851 10.85884839 -54.32432238 10.95752893 -57 11 C-57 10.67 -57 10.34 -57 10 C-56.04222656 9.86424561 -55.08445312 9.72849121 -54.09765625 9.58862305 C-50.51052976 9.07772496 -46.9252279 8.55486731 -43.34033203 8.02856445 C-41.79489885 7.80334328 -40.24900251 7.58127496 -38.70263672 7.36254883 C-36.46710111 7.04576376 -34.23353254 6.71729766 -32 6.38671875 C-31.31945557 6.29283371 -30.63891113 6.19894867 -29.93774414 6.10221863 C-24.97051033 5.35062365 -20.66842179 3.85881466 -16 2 C-13.92860208 1.37560733 -11.84559702 0.78761389 -9.75 0.25 C-8.25726562 -0.14445312 -8.25726562 -0.14445312 -6.734375 -0.546875 C-4.05044592 -0.99164039 -2.53470188 -0.89318066 0 0 Z " fill="#4AE257" transform="translate(640,487)"/>
<path d="M0 0 C0.66 0.33 1.32 0.66 2 1 C1.34 1.66 0.68 2.32 0 3 C0.83232147 3.04971451 0.83232147 3.04971451 1.68145752 3.10043335 C7.45709831 3.44712546 13.23189296 3.80596896 19.00634766 4.171875 C21.16142797 4.30683111 23.31670465 4.43868868 25.47216797 4.56738281 C28.57055611 4.75291504 31.66806691 4.94958293 34.765625 5.1484375 C35.72929993 5.20373627 36.69297485 5.25903503 37.68585205 5.31600952 C38.58648376 5.37592072 39.48711548 5.43583191 40.41503906 5.49755859 C41.60084564 5.57083878 41.60084564 5.57083878 42.81060791 5.64559937 C45 6 45 6 49 8 C31.18 7.67 13.36 7.34 -5 7 C-4.34 6.67 -3.68 6.34 -3 6 C-2.65657551 4.66923011 -2.32380126 3.33568021 -2 2 C-1.34 1.34 -0.68 0.68 0 0 Z " fill="#132E13" transform="translate(627,675)"/>
<path d="M0 0 C-3.0659674 3.0659674 -6.85914452 2.66507787 -11 3 C-12.97938275 3.16408041 -14.95855275 3.33074793 -16.9375 3.5 C-17.85402344 3.5721875 -18.77054688 3.644375 -19.71484375 3.71875 C-22.02666565 3.87391387 -22.02666565 3.87391387 -24 5 C-26.24661333 5.20737969 -28.49776174 5.36695639 -30.75 5.5 C-34.14635938 5.7023363 -37.45333325 5.90330546 -40.8046875 6.49609375 C-45.31392192 7.20720774 -49.81821947 7.36423779 -54.375 7.5625 C-55.30183594 7.60568359 -56.22867188 7.64886719 -57.18359375 7.69335938 C-59.45560294 7.79876186 -61.72770925 7.90088606 -64 8 C-64 7.34 -64 6.68 -64 6 C-59.12980793 5.44493851 -54.25919397 4.89378125 -49.38818359 4.34594727 C-47.73767721 4.15979631 -46.08728237 3.97265318 -44.43701172 3.78442383 C-35.31620529 2.74481823 -26.22478686 1.78957317 -17.05810547 1.25610352 C-12.75682879 0.89588962 -8.5611502 0.13091969 -4.328125 -0.6953125 C-2 -1 -2 -1 0 0 Z " fill="#81DC2C" transform="translate(593,498)"/>
<path d="M0 0 C0.33 0.66 0.66 1.32 1 2 C-1.18823002 6.67485504 -4.04420107 10.31718167 -7.375 14.25 C-11.76929519 19.52028214 -14.891611 24.91375803 -18 31 C-18.64582031 32.14726562 -19.29164063 33.29453125 -19.95703125 34.4765625 C-20.28622559 35.06260254 -20.61541992 35.64864258 -20.95458984 36.25244141 C-21.89249873 37.9199903 -22.83481157 39.58505992 -23.77734375 41.25 C-25.37273442 44.0057412 -25.37273442 44.0057412 -24 47 C-22.37051936 48.22445284 -22.37051936 48.22445284 -20.4375 49.1875 C-19.303125 49.785625 -18.16875 50.38375 -17 51 C-17.99 51.495 -17.99 51.495 -19 52 C-21.3828125 51.00390625 -21.3828125 51.00390625 -24.125 49.5625 C-25.03507812 49.08941406 -25.94515625 48.61632812 -26.8828125 48.12890625 C-27.58148438 47.75636719 -28.28015625 47.38382812 -29 47 C-23.94541114 34.69457919 -17.12741379 23.25080562 -9.5 12.375 C-8.72571655 11.26439209 -8.72571655 11.26439209 -7.93579102 10.13134766 C-6.67942966 8.37967592 -5.34661965 6.68327456 -4 5 C-3.34 5 -2.68 5 -2 5 C-1.34 3.35 -0.68 1.7 0 0 Z " fill="#D3BF06" transform="translate(367,378)"/>
<path d="M0 0 C0.33 0 0.66 0 1 0 C1 2.64 1 5.28 1 8 C1.66 8 2.32 8 3 8 C3 18.23 3 28.46 3 39 C2.34 39 1.68 39 1 39 C1 41.31 1 43.62 1 46 C0.67 46 0.34 46 0 46 C-1.00600545 38.24986236 -1.15525265 30.56679252 -1.13037109 22.7578125 C-1.12497193 20.73950827 -1.13036883 18.72142286 -1.13671875 16.703125 C-1.13542969 15.4140625 -1.13414062 14.125 -1.1328125 12.796875 C-1.13168457 11.63510742 -1.13055664 10.47333984 -1.12939453 9.27636719 C-1.00400419 6.10138912 -0.59532252 3.11790561 0 0 Z " fill="#07A955" transform="translate(704,490)"/>
<path d="M0 0 C0 0.33 0 0.66 0 1 C-11.09498105 3.37584833 -22.24659885 4.13148384 -33.578125 3.96484375 C-36.22918062 4.00332682 -38.80209356 4.27493493 -41.4375 4.5625 C-49.96025272 5.36674403 -58.48184269 4.57916342 -67 4 C-67 3.67 -67 3.34 -67 3 C-19.66406207 -0.34565734 -19.66406207 -0.34565734 0 0 Z " fill="#17290F" transform="translate(680,720)"/>
<path d="M0 0 C-13.18168377 8.78778918 -31.82939898 6.82276264 -47 7 C-47 6.67 -47 6.34 -47 6 C-45.783125 5.87625 -44.56625 5.7525 -43.3125 5.625 C-40.82408117 5.37194046 -38.96457769 4.98479375 -36.65234375 3.9921875 C-33.44342503 2.7917967 -30.6683606 2.65192714 -27.25 2.5 C-23.14225717 2.26490546 -19.29709999 1.96787577 -15.3125 0.9375 C-10.2338866 -0.35610907 -5.20717669 -0.17519473 0 0 Z " fill="#203922" transform="translate(724,712)"/>
<path d="M0 0 C9.63401065 0.41615597 18.69393547 2.65439171 28 5 C28 5.66 28 6.32 28 7 C29.175625 7.12375 30.35125 7.2475 31.5625 7.375 C35.54120426 7.86435935 39.17766559 8.8055205 43 10 C39.69984002 14.13937592 36.82675589 17.58662205 32 20 C33.14876686 16.55369942 34.19140915 16.08379321 37 14 C37 13.34 37 12.68 37 12 C32.39418088 10.33122496 27.89362922 8.91234999 23.0625 8.0625 C18.55700623 7.23125386 14.6133011 5.73712768 10.40625 3.953125 C6.99601792 2.60231879 3.57703851 1.79489745 0 1 C0 0.67 0 0.34 0 0 Z " fill="#68E14E" transform="translate(610,642)"/>
<path d="M0 0 C1.15371094 0.04833984 2.30742188 0.09667969 3.49609375 0.14648438 C5.28080078 0.2305957 5.28080078 0.2305957 7.1015625 0.31640625 C8.92107422 0.3947168 8.92107422 0.3947168 10.77734375 0.47460938 C13.76070763 0.60381017 16.74369623 0.73875666 19.7265625 0.87890625 C19.3965625 1.53890625 19.0665625 2.19890625 18.7265625 2.87890625 C-5.0334375 2.87890625 -28.7934375 2.87890625 -53.2734375 2.87890625 C-53.2734375 2.54890625 -53.2734375 2.21890625 -53.2734375 1.87890625 C-52.06284668 1.8538501 -50.85225586 1.82879395 -49.60498047 1.80297852 C-45.09853163 1.70855741 -40.5922245 1.60842237 -36.0859375 1.5065918 C-34.13838016 1.46337389 -32.19078813 1.42168994 -30.24316406 1.3815918 C-27.43804488 1.32356967 -24.63309817 1.25996841 -21.828125 1.1953125 C-20.96226776 1.17860001 -20.09641052 1.16188751 -19.20431519 1.14466858 C-12.72570243 0.98716281 -6.4792708 -0.28868038 0 0 Z " fill="#3C440E" transform="translate(588.2734375,718.12109375)"/>
<path d="M0 0 C6.40702724 -0.21925188 12.2410864 0.07262148 18.49609375 1.48828125 C22.62611325 2.3323258 26.80280184 2.66065206 31 3 C31 3.66 31 4.32 31 5 C33.31 5.66 35.62 6.32 38 7 C37.67 7.66 37.34 8.32 37 9 C34.525 8.505 34.525 8.505 32 8 C32 7.34 32 6.68 32 6 C22.51229799 5.20428278 22.51229799 5.20428278 13 5 C9.50798498 5 6.41056433 4.69960294 3 4 C3 3.34 3 2.68 3 2 C2.01 1.67 1.02 1.34 0 1 C0 0.67 0 0.34 0 0 Z " fill="#1D442D" transform="translate(718,688)"/>
<path d="M0 0 C8.32119472 -0.13766682 15.90792924 0.06077232 23.94873047 2.41162109 C27.92599127 3.55244453 31.93475242 4.57789341 35.9375 5.625 C36.81212891 5.85445312 37.68675781 6.08390625 38.58789062 6.3203125 C40.72508336 6.88088764 42.86245549 7.44076799 45 8 C45 8.33 45 8.66 45 9 C38.84663926 9.3619624 33.61355079 8.33252068 27.64453125 6.859375 C23.67617962 5.92364364 19.69824561 5.16358326 15.6875 4.4375 C10.40117828 3.47418687 5.18805258 2.40509757 0 1 C0 0.67 0 0.34 0 0 Z " fill="#61DE3D" transform="translate(586,603)"/>
<path d="M0 0 C4.86756457 -0.13624227 9.13043937 0.30773803 13.875 1.375 C20.33993165 2.77841346 26.77888082 3.65218895 33.36474609 4.26513672 C37.03629498 4.63622073 39.77270212 5.24284166 43 7 C35.33382115 7.21280014 27.91559007 6.57140499 20.3125 5.625 C19.22388672 5.49867188 18.13527344 5.37234375 17.01367188 5.2421875 C11.51634782 4.57381983 6.21526382 3.91104772 1 2 C0.67 1.34 0.34 0.68 0 0 Z " fill="#CDD710" transform="translate(442,495)"/>
<path d="M0 0 C6.42318191 0.40507904 12.84607871 0.8144708 19.26879883 1.22680664 C21.45200429 1.36646318 23.63527225 1.50514651 25.81860352 1.64282227 C28.96387549 1.8413277 32.10890325 2.04337676 35.25390625 2.24609375 C36.70900352 2.33678383 36.70900352 2.33678383 38.1934967 2.42930603 C43.17590916 2.75402377 48.06918709 3.21047407 53 4 C53 4.33 53 4.66 53 5 C35.32853642 5.35901393 17.48444656 4.76857856 0 2 C0 1.34 0 0.68 0 0 Z " fill="#343817" transform="translate(475,715)"/>
<path d="M0 0 C2.96665424 0.70569373 5.35825632 0.9771907 8.3828125 0.8046875 C8.8778125 2.2896875 8.8778125 2.2896875 9.3828125 3.8046875 C10.3728125 4.1346875 11.3628125 4.4646875 12.3828125 4.8046875 C4.43601414 4.51359598 -2.60252848 3.12204644 -10.1953125 0.78515625 C-14.29853151 -0.39053778 -18.38502268 -1.09932396 -22.60546875 -1.703125 C-23.60126953 -1.94675781 -23.60126953 -1.94675781 -24.6171875 -2.1953125 C-24.9471875 -2.8553125 -25.2771875 -3.5153125 -25.6171875 -4.1953125 C-17.89670438 -6.76880687 -7.64170862 -2.18562439 0 0 Z " fill="#DBD716" transform="translate(439.6171875,459.1953125)"/>
<path d="M0 0 C-4.74354436 2.22656164 -8.72250715 3.46148032 -14 4 C-14 4.66 -14 5.32 -14 6 C-16.03959477 6.50838564 -18.08179138 7.00633886 -20.125 7.5 C-21.26195312 7.7784375 -22.39890625 8.056875 -23.5703125 8.34375 C-26.81466698 8.96453765 -29.70814457 9.12006768 -33 9 C-30.6476592 6.23368914 -28.80960942 5.44938939 -25.2890625 4.68359375 C-24.37382813 4.47669922 -23.45859375 4.26980469 -22.515625 4.05664062 C-21.56171875 3.85232422 -20.6078125 3.64800781 -19.625 3.4375 C-17.74140796 3.02305843 -15.85856515 2.60519406 -13.9765625 2.18359375 C-13.14205566 2.00368896 -12.30754883 1.82378418 -11.44775391 1.63842773 C-8.92485389 1.03916789 -8.92485389 1.03916789 -6.33349609 -0.09741211 C-3.70240504 -1.11510866 -2.5993753 -0.96273159 0 0 Z " fill="#3EE35E" transform="translate(645,451)"/>
<path d="M0 0 C-1.83333333 0.91666667 -3.66666667 1.83333333 -5.5 2.75 C-7.13775391 3.57177734 -7.13775391 3.57177734 -8.80859375 4.41015625 C-10.69024685 5.34752811 -12.57648547 6.27594802 -14.47265625 7.18359375 C-18.2369227 8.92553262 -18.2369227 8.92553262 -21.4609375 11.47265625 C-23.20059701 13.19906962 -24.87579615 14.15460442 -27.0625 15.25 C-28.10083984 15.78367187 -28.10083984 15.78367187 -29.16015625 16.328125 C-29.76730469 16.54984375 -30.37445313 16.7715625 -31 17 C-31.66 16.67 -32.32 16.34 -33 16 C-5.42314142 -2.71157071 -5.42314142 -2.71157071 0 0 Z " fill="#C8CB11" transform="translate(435,330)"/>
<path d="M0 0 C0.69351562 -0.01289062 1.38703125 -0.02578125 2.1015625 -0.0390625 C5.80336481 -0.04625047 8.54457368 0.14338597 11.6875 2.1875 C2.02710055 3.45443763 -7.58971582 3.27734092 -17.3125 3.1875 C-17.3125 2.5275 -17.3125 1.8675 -17.3125 1.1875 C-11.52971811 0.3613883 -5.83359443 0.05293643 0 0 Z " fill="#E1D717" transform="translate(474.3125,597.8125)"/>
<path d="M0 0 C6.79939276 -0.24428956 13.12736698 0.67956087 19.8125 1.875 C20.84826172 2.04902344 21.88402344 2.22304688 22.95117188 2.40234375 C23.94310547 2.57636719 24.93503906 2.75039063 25.95703125 2.9296875 C26.85397705 3.08679199 27.75092285 3.24389648 28.67504883 3.40576172 C31 4 31 4 34 6 C22.29398865 7.11133019 11.26058687 3.82566782 0 1 C0 0.67 0 0.34 0 0 Z " fill="#7FDF3F" transform="translate(586,637)"/>
<path d="M0 0 C1.63974986 0.05386382 3.2772087 0.18121456 4.91015625 0.33984375 C5.89951172 0.43330078 6.88886719 0.52675781 7.90820312 0.62304688 C8.94912109 0.72681641 9.99003906 0.83058594 11.0625 0.9375 C12.62967773 1.08735352 12.62967773 1.08735352 14.22851562 1.24023438 C16.81951329 1.48868621 19.40992248 1.74215994 22 2 C22 2.33 22 2.66 22 3 C17.89735529 3.39310512 13.79285436 3.76137649 9.6875 4.125 C8.52025391 4.23714844 7.35300781 4.34929688 6.15039062 4.46484375 C5.03212891 4.56152344 3.91386719 4.65820312 2.76171875 4.7578125 C1.2142395 4.89920654 1.2142395 4.89920654 -0.36450195 5.04345703 C-3 5 -3 5 -6 3 C-5.195625 2.690625 -4.39125 2.38125 -3.5625 2.0625 C-1.10919595 1.23664655 -1.10919595 1.23664655 0 0 Z " fill="#2F4718" transform="translate(631,716)"/>
<path d="M0 0 C4.36746994 0.4963034 6.54615451 1.40961588 10 4 C13.15118325 4.72045367 13.15118325 4.72045367 16 5 C16 5.66 16 6.32 16 7 C17.134375 7.12375 18.26875 7.2475 19.4375 7.375 C20.613125 7.58125 21.78875 7.7875 23 8 C23.33 8.66 23.66 9.32 24 10 C19.14728151 9.3778566 14.48086877 8.49927703 9.75 7.25 C8.54859375 6.94578125 7.3471875 6.6415625 6.109375 6.328125 C2.51027929 4.79082281 1.59950131 3.50035794 0 0 Z " fill="#3F410B" transform="translate(450,705)"/>
<path d="M0 0 C0.33 0.66 0.66 1.32 1 2 C-5.50652302 4.61736323 -11.08167409 5.39871196 -18.0625 5.1875 C-18.92810547 5.17396484 -19.79371094 5.16042969 -20.68554688 5.14648438 C-22.79064174 5.1115933 -24.89540974 5.05780665 -27 5 C-23.46218166 2.83363223 -20.41356314 2.68046482 -16.3125 2.5 C-10.64372445 2.1742083 -5.48970086 1.41975022 0 0 Z " fill="#2B422C" transform="translate(713,712)"/>
<path d="M0 0 C0.33 0 0.66 0 1 0 C1.33 3.63 1.66 7.26 2 11 C1.01 10.34 0.02 9.68 -1 9 C-4.16777792 10.1049352 -7.07356183 11.56609199 -10.08984375 13.03125 C-13 14 -13 14 -15.37890625 13.15625 C-15.91386719 12.7746875 -16.44882812 12.393125 -17 12 C-15.10667466 11.18167278 -13.21022267 10.37057732 -11.3125 9.5625 C-10.25675781 9.11003906 -9.20101562 8.65757812 -8.11328125 8.19140625 C-5.38027471 7.14552545 -2.87957663 6.46479252 0 6 C0 4.02 0 2.04 0 0 Z " fill="#26E678" transform="translate(699,458)"/>
<path d="M0 0 C0 0.66 0 1.32 0 2 C0.94875 2.103125 1.8975 2.20625 2.875 2.3125 C6 3 6 3 8 6 C2.87475334 5.36684209 -1.96530771 4.31839344 -6.9375 2.9375 C-7.62134766 2.75123047 -8.30519531 2.56496094 -9.00976562 2.37304688 C-10.67420293 1.91910943 -12.33725312 1.46009084 -14 1 C-14 0.67 -14 0.34 -14 0 C-8.97703996 -1.13016601 -5.02125926 -0.77916092 0 0 Z " fill="#63E256" transform="translate(639,612)"/>
<path d="M0 0 C-1 2 -1 2 -4.125 3.125 C-7.9171186 3.98128485 -11.12905653 4.23225661 -15 4 C-15.33 3.67 -15.66 3.34 -16 3 C-18.67058851 2.85884839 -21.32432238 2.95752893 -24 3 C-24 2.67 -24 2.34 -24 2 C-15.95072024 0.70098079 -8.16240568 -0.33853295 0 0 Z " fill="#6FE35C" transform="translate(607,495)"/>
<path d="M0 0 C5.56890517 0.47986031 10.67067568 1.29915181 16 3 C12.69984002 7.13937592 9.82675589 10.58662205 5 13 C6.14876686 9.55369942 7.19140915 9.08379321 10 7 C10 6.34 10 5.68 10 5 C5.05 3.02 5.05 3.02 0 1 C0 0.67 0 0.34 0 0 Z " fill="#52D146" transform="translate(637,649)"/>
<path d="M0 0 C6.44070471 -0.10655578 12.62641289 0.03794912 19 1 C19.33 2.32 19.66 3.64 20 5 C13.21338787 4.21085905 6.63850633 2.58725189 0 1 C0 0.67 0 0.34 0 0 Z " fill="#78DE3E" transform="translate(586,603)"/>
<path d="M0 0 C0 0.33 0 0.66 0 1 C-8.04030671 2.77967263 -15.71017896 4.43630637 -24 4 C-23.67 3.34 -23.34 2.68 -23 2 C-20.07056081 1.32694059 -17.21272153 0.78090535 -14.25 0.3125 C-13.43789063 0.17005859 -12.62578125 0.02761719 -11.7890625 -0.11914062 C-7.59735427 -0.8052427 -4.15305073 -1.25773284 0 0 Z " fill="#4CDF46" transform="translate(614,460)"/>
<path d="M0 0 C0.66 0 1.32 0 2 0 C1.20486664 3.78111288 -0.39188139 6.7454145 -2.2578125 10.09765625 C-3.29918375 12.16813301 -3.29918375 12.16813301 -2 15 C-0.37051936 16.22445284 -0.37051936 16.22445284 1.5625 17.1875 C2.696875 17.785625 3.83125 18.38375 5 19 C4.34 19.33 3.68 19.66 3 20 C0.6171875 19.00390625 0.6171875 19.00390625 -2.125 17.5625 C-3.03507812 17.08941406 -3.94515625 16.61632812 -4.8828125 16.12890625 C-5.58148438 15.75636719 -6.28015625 15.38382812 -7 15 C-4.86740246 9.8817659 -2.51449939 4.9422919 0 0 Z " fill="#E8CD1C" transform="translate(345,410)"/>
<path d="M0 0 C7.29031024 -0.2494783 13.90673679 0.27669093 21 2 C21 2.33 21 2.66 21 3 C19.700625 2.979375 18.40125 2.95875 17.0625 2.9375 C12.30617675 2.92995028 7.71611047 3.40112883 3 4 C3 3.34 3 2.68 3 2 C2.01 1.67 1.02 1.34 0 1 C0 0.67 0 0.34 0 0 Z " fill="#124525" transform="translate(718,688)"/>
<path d="M0 0 C0 0.66 0 1.32 0 2 C1.98 2 3.96 2 6 2 C6 1.34 6 0.68 6 0 C10.29 0.33 14.58 0.66 19 1 C18.67 1.66 18.34 2.32 18 3 C14.72924117 3.0580476 11.45861476 3.09361165 8.1875 3.125 C7.25873047 3.14175781 6.32996094 3.15851562 5.37304688 3.17578125 C4.48037109 3.18222656 3.58769531 3.18867187 2.66796875 3.1953125 C1.84578857 3.20578613 1.0236084 3.21625977 0.17651367 3.22705078 C-2 3 -2 3 -5 1 C-2 0 -2 0 0 0 Z " fill="#E5D927" transform="translate(500,712)"/>
<path d="M0 0 C-0.72445313 0.51949219 -1.44890625 1.03898437 -2.1953125 1.57421875 C-8.52065148 6.10009708 -8.52065148 6.10009708 -14.5 11.0625 C-15.325 11.701875 -16.15 12.34125 -17 13 C-17.99 12.67 -18.98 12.34 -20 12 C-17.94423268 10.20007488 -15.88103782 8.41014591 -13.8125 6.625 C-13.23435547 6.11710937 -12.65621094 5.60921875 -12.06054688 5.0859375 C-3.8793854 -1.9396927 -3.8793854 -1.9396927 0 0 Z " fill="#DBCB08" transform="translate(406,347)"/>
<path d="M0 0 C2.6875 2.125 2.6875 2.125 4 4 C1.99855726 3.67544172 -0.00092329 3.33882656 -2 3 C-3.3921875 2.78150391 -3.3921875 2.78150391 -4.8125 2.55859375 C-5.8025 2.39488281 -6.7925 2.23117187 -7.8125 2.0625 C-8.76769531 1.90910156 -9.72289062 1.75570313 -10.70703125 1.59765625 C-11.84205078 1.30181641 -11.84205078 1.30181641 -13 1 C-13.33 0.34 -13.66 -0.32 -14 -1 C-9.24272989 -2.5857567 -4.75105133 -1.35845929 0 0 Z " fill="#EAD924" transform="translate(428,456)"/>
<path d="M0 0 C2.31 0.66 4.62 1.32 7 2 C6.07574219 2.12181641 6.07574219 2.12181641 5.1328125 2.24609375 C2.87217318 2.80605315 2.87217318 2.80605315 1.8046875 4.78515625 C-0.2470531 9.81105864 -1.84200659 14.6925302 -3 20 C-3.33 20 -3.66 20 -4 20 C-3.6143354 12.88515313 -2.60900601 6.64558134 0 0 Z " fill="#E5CC11" transform="translate(327,454)"/>
<path d="M0 0 C0.66 0 1.32 0 2 0 C2 0.99 2 1.98 2 3 C2.66 3 3.32 3 4 3 C4.99 6.3 5.98 9.6 7 13 C5.40084119 13.69906942 3.79544955 14.38389468 2.1875 15.0625 C1.29417969 15.44535156 0.40085937 15.82820313 -0.51953125 16.22265625 C-3 17 -3 17 -6 16 C-2.7 14.35 0.6 12.7 4 11 C3.67 8.69 3.34 6.38 3 4 C2.34 4 1.68 4 1 4 C0.67 2.68 0.34 1.36 0 0 Z " fill="#0BD366" transform="translate(683,421)"/>
<path d="M0 0 C0.33 0.66 0.66 1.32 1 2 C-2.24027843 3.84494322 -5.20447945 4.53659594 -8.875 5.125 C-10.38707031 5.37636719 -10.38707031 5.37636719 -11.9296875 5.6328125 C-14.98561748 5.99827995 -17.92557891 6.06424163 -21 6 C-18.24974139 4.16649426 -16.97782429 3.6227891 -13.875 3 C-12.69744141 2.75636719 -12.69744141 2.75636719 -11.49609375 2.5078125 C-10.67238281 2.34023438 -9.84867188 2.17265625 -9 2 C-7.31178414 1.62823602 -5.62424422 1.25338496 -3.9375 0.875 C-2.625 0.58333333 -1.3125 0.29166667 0 0 Z " fill="#0F411E" transform="translate(745,706)"/>
<path d="M0 0 C-4.02165224 4.02165224 -11.62163917 3.05547046 -17.0625 3.0625 C-18.70838931 3.04669585 -20.35426767 3.02768522 -22 3 C-22 2.67 -22 2.34 -22 2 C-18.7099087 1.46886618 -15.4177531 0.95185229 -12.125 0.4375 C-10.71927734 0.21030273 -10.71927734 0.21030273 -9.28515625 -0.02148438 C-7.94130859 -0.2293457 -7.94130859 -0.2293457 -6.5703125 -0.44140625 C-5.74289551 -0.57232666 -4.91547852 -0.70324707 -4.06298828 -0.83813477 C-2 -1 -2 -1 0 0 Z " fill="#5EDC31" transform="translate(593,498)"/>
<path d="M0 0 C2.95514876 2.75134539 5.1524809 5.39733775 7 9 C7 9.99 7 10.98 7 12 C7.66 12 8.32 12 9 12 C9.33 12.66 9.66 13.32 10 14 C12.01669827 15.13350534 12.01669827 15.13350534 14 16 C12.35 16.33 10.7 16.66 9 17 C7 13.66666667 5 10.33333333 3 7 C2.43925781 6.10667969 1.87851562 5.21335937 1.30078125 4.29296875 C0 2 0 2 0 0 Z " fill="#EED512" transform="translate(342,608)"/>
<path d="M0 0 C0.33 0 0.66 0 1 0 C0.43424024 4.24319819 -0.21905567 8.46734668 -0.9375 12.6875 C-1.09089844 13.59886719 -1.24429688 14.51023437 -1.40234375 15.44921875 C-1.97657322 17.9000151 -2.77541946 19.81215108 -4 22 C-5.54399994 18.91200011 -4.56641028 16.34182062 -4 13 C-3.87625 12.195625 -3.7525 11.39125 -3.625 10.5625 C-2.73344143 6.90710988 -1.36644566 3.50523016 0 0 Z " fill="#13A04B" transform="translate(700,556)"/>
<path d="M0 0 C8.18366752 0.90929639 16.2428418 2.14209961 24 5 C24 5.66 24 6.32 24 7 C18.46043165 6.24460432 18.46043165 6.24460432 16 4.9375 C13.9342717 3.79662543 13.9342717 3.79662543 11.125 4 C7.65260186 4 5.20143514 3.30967801 2 2 C1.34 1.34 0.68 0.68 0 0 Z " fill="#EEDB35" transform="translate(417,489)"/>
<path d="M0 0 C-4.49296291 3.97454411 -9.19123588 4.170846 -15 4 C-14.01 3.67 -13.02 3.34 -12 3 C-12 2.34 -12 1.68 -12 1 C-7.53763531 -0.80619523 -4.68965706 -1.11658501 0 0 Z " fill="#31E35F" transform="translate(652,484)"/>
<path d="M0 0 C11.52164009 0.77904328 11.52164009 0.77904328 17 3 C17 3.66 17 4.32 17 5 C11.18733381 4.21450457 5.63122376 2.59317541 0 1 C0 0.67 0 0.34 0 0 Z " fill="#62DD35" transform="translate(610,642)"/>
<path d="M0 0 C2.97 0.33 5.94 0.66 9 1 C8.67 1.99 8.34 2.98 8 4 C-2.55808656 4.18451025 -2.55808656 4.18451025 -7 3 C-7 2.67 -7 2.34 -7 2 C-3.535 1.505 -3.535 1.505 0 1 C0 0.67 0 0.34 0 0 Z " fill="#C0DF40" transform="translate(485,466)"/>
<path d="M0 0 C0.66 0.33 1.32 0.66 2 1 C-0.9236709 5.72100957 -3.89315443 10.39726582 -7 15 C-7.66 14.67 -8.32 14.34 -9 14 C-7.87883864 12.03946649 -6.75294469 10.08163875 -5.625 8.125 C-4.99851562 7.03445313 -4.37203125 5.94390625 -3.7265625 4.8203125 C-2 2 -2 2 0 0 Z " fill="#E1C904" transform="translate(355,395)"/>
<path d="M0 0 C0.33 0 0.66 0 1 0 C1.48209366 6.26721763 1.48209366 6.26721763 -0.5625 9.375 C-3.6785229 11.4523486 -6.30463414 11.71574109 -10 12 C-6.43312102 8.17834395 -6.43312102 8.17834395 -3.875 7.125 C-1.03098185 5.41858911 -0.80693291 3.09324284 0 0 Z " fill="#0A3D1F" transform="translate(757,695)"/>
<path d="M0 0 C12.29496652 -0.59068344 12.29496652 -0.59068344 17 3 C17.875 5.6875 17.875 5.6875 18 8 C17.34 7.01 16.68 6.02 16 5 C12.94570927 3.78715124 12.94570927 3.78715124 10 3 C10 2.34 10 1.68 10 1 C6.7 1 3.4 1 0 1 C0 0.67 0 0.34 0 0 Z " fill="#162E1F" transform="translate(739,690)"/>
<path d="M0 0 C0.60585938 0.12117187 1.21171875 0.24234375 1.8359375 0.3671875 C3.09277344 0.61855469 3.09277344 0.61855469 4.375 0.875 C7.21354167 1.44270833 10.05208333 2.01041667 12.890625 2.578125 C14.24414062 2.84882812 14.24414062 2.84882812 15.625 3.125 C17.8125 3.5625 17.8125 3.5625 20 4 C20 4.33 20 4.66 20 5 C18.20841511 5.02696365 16.41671527 5.04637917 14.625 5.0625 C13.62726563 5.07410156 12.62953125 5.08570313 11.6015625 5.09765625 C9 5 9 5 7 4 C7 3.34 7 2.68 7 2 C5.02 2 3.04 2 1 2 C0.67 1.34 0.34 0.68 0 0 Z " fill="#66620C" transform="translate(459,708)"/>
<path d="M0 0 C0 0.33 0 0.66 0 1 C-5.94 0.67 -11.88 0.34 -18 0 C-18 -0.33 -18 -0.66 -18 -1 C-5.33029613 -3.84965831 -5.33029613 -3.84965831 0 0 Z " fill="#A2DD36" transform="translate(559,600)"/>
<path d="M0 0 C3.3 0.33 6.6 0.66 10 1 C10 1.66 10 2.32 10 3 C6.04 3 2.08 3 -2 3 C-1.34 2.01 -0.68 1.02 0 0 Z " fill="#374F1C" transform="translate(631,716)"/>
<path d="M0 0 C0.66 0.33 1.32 0.66 2 1 C0.87895467 2.31587941 -0.24696965 3.62760353 -1.375 4.9375 C-2.00148438 5.66839844 -2.62796875 6.39929688 -3.2734375 7.15234375 C-5 9 -5 9 -7 10 C-6.42424336 6.64749299 -5.40693737 5.06181371 -2.9375 2.75 C-2.38964844 2.22921875 -1.84179688 1.7084375 -1.27734375 1.171875 C-0.64505859 0.59179688 -0.64505859 0.59179688 0 0 Z " fill="#E3CB04" transform="translate(375,370)"/>
<path d="M0 0 C-2.09836004 1.03271642 -4.20390891 2.05083717 -6.3125 3.0625 C-7.48425781 3.63097656 -8.65601563 4.19945312 -9.86328125 4.78515625 C-13 6 -13 6 -16 5 C-4.31192661 -2.1559633 -4.31192661 -2.1559633 0 0 Z " fill="#B5C316" transform="translate(435,330)"/>
<path d="M0 0 C0 0.33 0 0.66 0 1 C-1.89575251 1.02721176 -3.79161979 1.04649136 -5.6875 1.0625 C-7.27111328 1.07990234 -7.27111328 1.07990234 -8.88671875 1.09765625 C-11.72410262 1.00865425 -14.2438919 0.64939838 -17 0 C-17 -0.33 -17 -0.66 -17 -1 C-11.0853971 -2.59854133 -5.84715547 -1.25890714 0 0 Z " fill="#B7D606" transform="translate(487,467)"/>
<path d="M0 0 C-3.28491373 2.18994248 -4.83095639 2.35277339 -8.6875 2.625 C-10.17830078 2.73714844 -10.17830078 2.73714844 -11.69921875 2.8515625 C-12.83810547 2.92503906 -12.83810547 2.92503906 -14 3 C-4.63580818 -1.78300315 -4.63580818 -1.78300315 0 0 Z " fill="#1A2E1D" transform="translate(720,715)"/>
<path d="M0 0 C1.32 0 2.64 0 4 0 C4 0.66 4 1.32 4 2 C5.134375 2.12375 6.26875 2.2475 7.4375 2.375 C8.613125 2.58125 9.78875 2.7875 11 3 C11.33 3.66 11.66 4.32 12 5 C7.6822542 4.49202991 3.96697886 3.80317221 0 2 C0 1.34 0 0.68 0 0 Z " fill="#35370A" transform="translate(462,710)"/>
<path d="M0 0 C0.33 0 0.66 0 1 0 C1.33 3.63 1.66 7.26 2 11 C-0.475 10.01 -0.475 10.01 -3 9 C-3 8.01 -3 7.02 -3 6 C-2.01 6 -1.02 6 0 6 C0 4.02 0 2.04 0 0 Z " fill="#29BA6C" transform="translate(699,458)"/>
<path d="M0 0 C4.16138263 -0.08159574 7.9472484 0.01751476 12 1 C12 1.33 12 1.66 12 2 C10.56589632 2.24954005 9.12739928 2.47392642 7.6875 2.6875 C6.88699219 2.81511719 6.08648437 2.94273437 5.26171875 3.07421875 C3 3 3 3 1.20703125 1.51953125 C0.80871094 1.01808594 0.41039062 0.51664062 0 0 Z " fill="#E0DA23" transform="translate(442,495)"/>
<path d="M0 0 C-6.4 3.07692308 -6.4 3.07692308 -9.4375 2.6875 C-9.953125 2.460625 -10.46875 2.23375 -11 2 C-3.57142857 -1.57142857 -3.57142857 -1.57142857 0 0 Z " fill="#20E155" transform="translate(645,451)"/>
<path d="M0 0 C-2.93828597 2.50298434 -5.17902761 3.46930939 -9 4 C-8 1 -8 1 -5.625 -0.25 C-3 -1 -3 -1 0 0 Z " fill="#8FC93C" transform="translate(597,695)"/>
<path d="M0 0 C0.66 0.99 1.32 1.98 2 3 C-6.57142857 3.28571429 -6.57142857 3.28571429 -10 1 C-6.61292998 0.22581257 -3.47338282 -0.37550085 0 0 Z " fill="#CFE044" transform="translate(473,465)"/>
<path d="M0 0 C-2.55068845 2.35448165 -3.71017358 2.98327924 -7.25 3.1875 C-8.1575 3.125625 -9.065 3.06375 -10 3 C-7.30922307 -0.25725628 -4.0224365 -2.01121825 0 0 Z " fill="#39E04C" transform="translate(622,457)"/>
<path d="M0 0 C-1.45381897 0.69699552 -2.91322953 1.38233866 -4.375 2.0625 C-5.18710937 2.44535156 -5.99921875 2.82820313 -6.8359375 3.22265625 C-7.55007813 3.47917969 -8.26421875 3.73570312 -9 4 C-9.66 3.67 -10.32 3.34 -11 3 C-10.67 2.01 -10.34 1.02 -10 0 C-2.25 -1.125 -2.25 -1.125 0 0 Z " fill="#67ED9F" transform="translate(685,437)"/>
<path d="M0 0 C0.6875 1.6875 0.6875 1.6875 1 4 C-0.3992219 6.79844381 -1.78791383 8.78791383 -4 11 C-3.48964169 6.6109185 -2.47785723 3.66291938 0 0 Z " fill="#25C053" transform="translate(687,596)"/>
<path d="M0 0 C0.66 0.99 1.32 1.98 2 3 C-4.625 2.25 -4.625 2.25 -8 0 C-4.67212881 -1.1092904 -3.3006216 -1.01557588 0 0 Z " fill="#68E465" transform="translate(645,615)"/>
<path d="M0 0 C0.66 0.33 1.32 0.66 2 1 C-0.83430453 4.2542015 -2.68607774 5.5206753 -7 6 C-4.74259377 3.66475218 -2.7194239 1.81294927 0 0 Z " fill="#BEBC0F" transform="translate(409,341)"/>
</svg>
